<?xml version="1.0" standalone="no"?>
<!DOCTYPE svg PUBLIC "-//W3C//DTD SVG 1.1//EN" "http://www.w3.org/Graphics/SVG/1.1/DTD/svg11.dtd" >
<svg xmlns="http://www.w3.org/2000/svg">
<metadata>Generated by IcoMoon</metadata>
<defs>
<font id="icomoon" horiz-adv-x="1024">
<font-face units-per-em="1024" ascent="960" descent="-64" />
<missing-glyph horiz-adv-x="1024" />
<glyph unicode="&#x20;" horiz-adv-x="512" d="" />
<glyph unicode="&#xe900;" glyph-name="account" d="M511.996 657.766c-97.801 0-177.365-79.565-177.365-177.367 0.002-97.532 79.258-177.367 177.367-177.367 27.648 0 54.795 6.259 80.087 19.083 0.211 0.107 0.397 0.241 0.599 0.358 57.348 29.417 96.678 89.167 96.678 157.929 0 97.798-79.567 177.365-177.367 177.365zM570.308 345.086c-37.152-16.070-79.435-16.083-116.614 0v67.829c0 12.427 10.108 22.537 22.537 22.537h71.541c12.427 0 22.539-10.108 22.539-22.537v-67.829h-0.002zM600.307 362.5v50.415c0 28.969-23.569 52.538-52.54 52.538h-71.539c-28.971 0-52.538-23.567-52.538-52.538v-50.415c-35.831 26.906-59.059 69.737-59.059 117.899 0 81.257 66.108 147.364 147.364 147.364s147.364-66.108 147.364-147.364c0.004-48.158-23.219-90.991-59.053-117.899zM511.998 605.655c-34.989 0-63.454-28.463-63.454-63.454 0-34.989 28.467-63.456 63.454-63.456 34.989 0 63.454 28.467 63.454 63.456 0 34.991-28.461 63.454-63.454 63.454zM511.998 508.747c-18.447 0-33.451 15.006-33.451 33.453s15.006 33.453 33.451 33.453c18.447 0 33.453-15.006 33.453-33.453 0.002-18.447-15.004-33.453-33.453-33.453zM787.275 263.025h-550.549c-13.89 0-25.194-11.298-25.194-25.195v-95.62c0-13.892 11.302-25.197 25.196-25.197h550.547c13.892 0 25.197 11.3 25.197 25.197v95.62c0 13.894-11.305 25.195-25.197 25.195zM782.468 147.021h-540.934v86.005h540.932v-86.005h0.002zM732.282 205.024h-442.027c-8.284 0-14.999-6.714-14.999-15.002 0-8.286 6.716-14.999 14.999-14.999h442.027c8.284 0 14.999 6.714 14.999 14.999 0.002 8.288-6.716 15.002-14.999 15.002zM993.030 885.648c-9.015 0-948.886 0-962.060 0h-0.002c-17.336 0-30.968-14.116-30.968-30.968 0-32.42 0-776.95 0-813.36 0-17.075 13.89-30.967 30.966-30.967h445.301c8.284 0 14.999 6.714 14.999 14.999s-6.716 14.999-14.999 14.999h-445.299c-0.532 0-0.964 0.435-0.964 0.966l0.004 662.635c7.044 0 948.895 0 963.991 0v-249.711c0-8.286 6.716-14.999 14.999-14.999s14.999 6.714 14.999 14.999v400.438c0.002 17.344-14.074 30.968-30.967 30.968zM148.556 733.952l-118.548 0.002v120.748c0.002 0.102 0.026 0.198 0.058 0.288 0.010 0.026 0.012 0.052 0.024 0.078 0.042 0.092 0.1 0.174 0.168 0.25 0.014 0.014 0.020 0.032 0.034 0.046 0.174 0.172 0.414 0.28 0.678 0.28h117.586v-121.692zM993.997 733.954h-815.443v121.692h814.474c0.141 0 0.275-0.034 0.397-0.090 0.32-0.15 0.525-0.474 0.567-0.856 0-0.006 0.004-0.012 0.004-0.020v-120.726zM1009.001 399.243c-8.284 0-14.999-6.714-14.999-14.999v-342.921c0-0.535-0.435-0.966-0.966-0.966h-446.765c-8.284 0-14.999-6.714-14.999-14.999s6.716-15.002 14.999-15.002h446.763c17.077 0 30.967 13.892 30.967 30.97v342.916c0 8.284-6.716 15.002-14.999 15.002z" />
<glyph unicode="&#xe901;" glyph-name="money" d="M362.662 888.8h-75.070c-8.288 0-15.004-6.716-15.004-15.004s6.716-15.004 15.004-15.004h75.070c8.288 0 15.004 6.716 15.004 15.004s-6.716 15.004-15.004 15.004zM243.991 888.8h-26.921c-8.287 0-15.003-6.716-15.003-15.004s6.716-15.004 15.003-15.004h26.921c8.288 0 15.004 6.716 15.004 15.004s-6.716 15.004-15.004 15.004zM289.865 101.097c-32.122 0-58.251-26.131-58.251-58.251 0-32.122 26.133-58.251 58.251-58.251 32.119-0.002 58.253 26.129 58.253 58.251-0.002 32.119-26.133 58.251-58.253 58.251zM289.865 14.605c-15.573-0.002-28.241 12.668-28.241 28.241s12.67 28.243 28.241 28.243c15.571 0 28.243-12.67 28.243-28.243s-12.672-28.241-28.243-28.241zM1007.358 659.543h-109.771c-8.288 0-15.004-6.716-15.004-15.004s6.716-15.004 15.004-15.004h94.767v-363.072h-586.071c-8.288 0-15.004-6.716-15.004-15.004s6.716-15.004 15.004-15.004h77.662v-87.71h-388.163v641.417h63.2c8.288 0 15.004 6.716 15.004 15.004s-6.716 15.004-15.004 15.004h-78.206c-8.286 0-15.004-6.716-15.004-15.004v-671.427c0-8.288 6.718-15.004 15.004-15.004h418.173c8.288 0 15.004 6.716 15.004 15.004v102.714h34.129v-215.605c0-30.24-24.602-54.844-54.842-54.844h-406.754c-30.238 0-54.842 24.604-54.842 54.844v854.301c0 30.238 24.604 54.842 54.842 54.842h406.754c30.24 0 54.842-24.604 54.842-54.842v-215.604h-34.129v145.622c0 8.288-6.716 15.004-15.004 15.004h-279.949c-8.288 0-15.004-6.716-15.004-15.004s6.716-15.004 15.004-15.004h264.949v-130.62h-243.546c-8.288 0-15.004-6.716-15.004-15.004v-393.082c0-8.288 6.716-15.004 15.004-15.004h105.86c8.288 0 15.004 6.716 15.004 15.004s-6.716 15.004-15.004 15.004h-90.857v363.074h582.161c8.288 0 15.006 6.716 15.006 15.004s-6.718 15.004-15.006 15.004h-259.477v215.606c0 46.786-38.063 84.85-84.849 84.85h-406.756c-46.786 0-84.85-38.064-84.85-84.85v-854.299c0-46.786 38.064-84.849 84.85-84.849h406.754c46.786 0 84.849 38.063 84.849 84.849v215.603h429.267c8.288 0 15.004 6.716 15.004 15.004v393.082c0.002 8.288-6.714 15.004-15.002 15.004zM957.771 559.842c-19.215 0-34.846 15.633-34.846 34.846 0 8.288-6.718 15.004-15.004 15.004h-568.077c-8.286 0-15.004-6.716-15.004-15.004 0-19.213-15.633-34.846-34.846-34.846-8.29 0-15.006-6.716-15.006-15.004v-193.679c0-8.286 6.716-15.004 15.006-15.004 19.213 0 34.846-15.631 34.846-34.846 0-8.288 6.716-15.004 15.004-15.004h568.075c8.286 0 15.004 6.716 15.004 15.004 0 19.215 15.631 34.846 34.846 34.846 8.288 0 15.004 6.718 15.004 15.004v193.679c0.002 8.288-6.714 15.004-15.002 15.004zM942.767 364.412c-23.733-5.643-42.455-24.365-48.098-48.098h-541.572c-5.643 23.733-24.365 42.455-48.098 48.098v167.174c23.733 5.643 42.455 24.365 48.098 48.098h541.57c5.643-23.733 24.365-42.455 48.098-48.098v-167.174h0.002zM623.885 564.316c-64.134 0-116.311-52.179-116.311-116.316 0-64.134 52.177-116.314 116.311-116.314 64.137 0 116.314 52.179 116.314 116.314 0 64.137-52.177 116.316-116.314 116.316zM623.885 361.694c-47.588 0-86.304 38.716-86.304 86.306 0 47.588 38.714 86.306 86.304 86.306 47.588 0 86.306-38.72 86.306-86.306 0-47.588-38.718-86.306-86.306-86.306z" />
<glyph unicode="&#xe902;" glyph-name="plane" d="M965.167 561.173h-24.838c-10.157 38.507-25.41 75.285-45.502 109.696l17.557 17.594c11.102 11.059 17.222 25.809 17.235 41.534 0.017 15.748-6.095 30.543-17.207 41.657l-76.815 76.816c-11.072 11.070-25.839 17.168-41.583 17.168s-30.511-6.098-41.583-17.168l-17.585-17.586c-34.537 20.13-71.319 35.374-109.728 45.462v24.876c0 32.41-26.368 58.778-58.778 58.778h-108.681c-32.442 0-58.833-26.368-58.833-58.778v-24.878c-38.445-10.108-75.223-25.35-109.692-45.462l-17.626 17.588c-22.884 22.886-60.183 22.894-83.163 0l-76.84-76.846c-22.872-22.958-22.86-60.251 0.026-83.135l17.632-17.632c-20.146-34.492-35.402-71.264-45.506-109.683h-24.88c-32.41 0-58.778-26.391-58.778-58.833v-108.681c0-32.41 26.368-58.778 58.778-58.778h24.876c10.1-38.436 25.356-75.221 45.502-109.724l-17.626-17.589c-11.070-11.072-17.168-25.839-17.168-41.583s6.098-30.511 17.168-41.583l76.816-76.815c11.1-11.1 25.873-17.21 41.602-17.207h0.055c15.723 0.013 30.473 6.133 41.493 17.195l17.632 17.6c34.411-20.092 71.189-35.345 109.696-45.502v-24.838c0-32.442 26.391-58.833 58.833-58.833h108.681c32.41 0 58.778 26.391 58.778 58.833v24.834c38.526 10.15 75.317 25.404 109.739 45.5l17.549-17.551c11.072-11.117 25.852-17.235 41.609-17.235 15.759 0 30.537 6.121 41.583 17.207l76.789 76.791c11.117 11.072 17.235 25.85 17.235 41.609 0 15.757-6.121 30.537-17.207 41.581l-17.579 17.577c20.094 34.421 35.349 71.213 45.5 109.739h24.834c32.442 0 58.833 26.368 58.833 58.778v108.681c0 32.437-26.391 58.829-58.833 58.829zM984 393.66c0-10.353-8.45-18.778-18.833-18.778h-40.538c-9.353 0-17.457-6.483-19.511-15.607-10.123-44.958-27.761-87.509-52.431-126.462-5.007-7.906-3.866-18.227 2.754-24.845l28.71-28.71c3.526-3.514 5.466-8.226 5.466-13.271s-1.941-9.758-5.493-13.297l-76.843-76.843c-3.514-3.526-8.226-5.466-13.271-5.466s-9.758 1.941-13.295 5.493l-28.687 28.685c-6.62 6.622-16.939 7.761-24.843 2.754-38.957-24.67-81.506-42.308-126.464-52.431-9.124-2.054-15.607-10.159-15.607-19.511v-40.538c0-10.383-8.425-18.833-18.778-18.833h-108.681c-10.383 0-18.833 8.45-18.833 18.833v40.538c0 9.35-6.481 17.455-15.603 19.509-44.934 10.127-87.465 27.77-126.411 52.433-3.292 2.086-7.006 3.104-10.697 3.104-5.161 0-10.276-1.99-14.133-5.843l-28.783-28.725c-3.509-3.522-8.207-5.463-13.231-5.466-0.006 0-0.013 0-0.019 0-5.043 0-9.775 1.95-13.318 5.493l-76.815 76.815c-7.208 7.209-7.208 19.388-0.014 26.581l28.742 28.685c6.626 6.618 7.78 16.947 2.768 24.858-24.752 39.085-42.39 81.628-52.426 126.443-2.046 9.135-10.156 15.629-19.518 15.629h-40.586c-10.354 0-18.778 8.425-18.778 18.778v108.681c0 10.383 8.424 18.833 18.778 18.833h40.592c9.36 0 17.468 6.492 19.516 15.627 10.042 44.789 27.682 87.311 52.428 126.387 5.006 7.906 3.864 18.227-2.754 24.845l-28.742 28.742c-7.318 7.317-7.306 19.26 0 26.594l76.79 76.791c7.364 7.332 19.307 7.344 26.635 0.012l28.742-28.686c6.615-6.602 16.926-7.738 24.821-2.744 39.040 24.702 81.566 42.324 126.396 52.376 9.133 2.046 15.627 10.156 15.627 19.516v40.584c0 10.354 8.45 18.778 18.833 18.778h108.681c10.353 0 18.778-8.424 18.778-18.778v-40.592c0-9.362 6.494-17.47 15.629-19.518 44.77-10.026 87.319-27.648 126.458-52.38 7.9-4.99 18.208-3.844 24.826 2.766l28.687 28.686c7.204 7.208 19.383 7.208 26.594 0l76.815-76.816c3.548-3.546 5.5-8.284 5.493-13.335-0.004-5.026-1.946-9.724-5.508-13.274l-28.685-28.742c-6.607-6.62-7.742-16.93-2.741-24.83 24.666-38.946 42.306-81.476 52.435-126.411 2.054-9.122 10.159-15.603 19.509-15.603h40.538c10.383 0 18.833-8.45 18.833-18.833v-108.681h-0.002zM558.172 785.495c-71.825 9.778-146.231-3.898-209.491-38.502-9.692-5.301-13.25-17.457-7.949-27.144 5.301-9.694 17.459-13.25 27.145-7.949 116.22 63.573 262.882 42.477 356.661-51.305 56.791-56.791 88.066-132.29 88.066-212.589 0-80.297-31.275-155.782-88.068-212.55-56.764-56.789-132.245-88.062-212.544-88.062s-155.797 31.277-212.589 88.066c-94.119 94.116-115.019 241.152-50.825 357.564 5.333 9.675 1.815 21.839-7.857 27.172-9.673 5.335-21.837 1.818-27.172-7.855-34.925-63.339-48.823-137.903-39.136-209.958 10.010-74.451 43.451-141.954 96.706-195.209 64.346-64.346 149.89-99.782 240.875-99.782 90.987 0 176.516 35.439 240.828 99.78 64.348 64.318 99.787 149.85 99.787 240.834 0 90.982-35.437 176.529-99.782 240.875-53.107 53.101-120.414 86.51-194.654 96.614zM285.658 655.081c5.12 0 10.236 1.954 14.142 5.858l0.055 0.055c7.81 7.81 7.782 20.446-0.030 28.256s-20.501 7.782-28.311-0.028c-7.81-7.81-7.81-20.474 0-28.286 3.908-3.902 9.026-5.856 14.144-5.856zM420.945 279.744c34.927-40.297 64.702-59.887 91.025-59.887 26.351 0 56.139 19.59 91.068 59.887 25.156 29.022 47.671 63.053 58.818 83.881 34.871 64.975 47.744 120.373 45.909 197.583-0.243 10.18-8.094 18.551-18.236 19.447-52.051 4.591-116.055 39.501-163.068 88.934-3.776 3.968-9.015 6.214-14.492 6.214s-10.72-2.246-14.496-6.217c-47.008-49.434-111.012-84.341-163.063-88.932-10.148-0.894-18.003-9.278-18.236-19.462-1.773-77.205 11.098-132.595 45.909-197.566 11.202-20.875 33.745-54.908 58.861-83.883zM511.968 627.614c46.667-43.885 103.789-74.752 155.957-84.326-0.45-61.547-12.241-106.569-41.329-160.768-9.777-18.274-30.782-50.035-53.788-76.578-37.062-42.761-55.94-46.084-60.841-46.084-4.894 0-23.735 3.324-60.798 46.084-22.976 26.511-44.017 58.291-53.835 76.587-29.030 54.178-40.817 99.206-41.308 160.762 52.164 9.579 109.278 40.442 155.94 84.324zM460.525 427.667l33.901-25.963c3.616-2.769 7.893-4.122 12.151-4.122 5.472 0 10.908 2.238 14.839 6.579l64.798 71.603c7.409 8.19 6.78 20.838-1.41 28.252-8.192 7.409-20.836 6.784-28.25-1.41l-52.437-57.946-19.275 14.765c-8.764 6.707-21.321 5.050-28.041-3.718-6.711-8.77-5.047-21.323 3.723-28.041z" />
<glyph unicode="&#xe903;" glyph-name="qa" d="M705.165 424.407c-0.011 0.026-0.023 0.045-0.034 0.070-1.922 4.087-5.227 7.552-9.641 9.609-10.007 4.67-21.911 0.339-26.579-9.675l-122.17-262.039c-4.666-10.012-0.333-21.909 9.677-26.577 2.733-1.276 5.609-1.875 8.437-1.875 7.533 0 14.748 4.275 18.14 11.552l38.15 81.826h131.75l38.129-81.824c3.392-7.279 10.609-11.554 18.14-11.554 2.831 0 5.702 0.602 8.437 1.875 10.012 4.666 14.347 16.563 9.679 26.577l-122.116 262.035zM639.793 267.298l47.241 101.323 47.217-101.323h-94.458zM1023.031-25.888l-54.985 170.377c28.179 56.442 38.818 121.562 29.982 184.378-9.551 67.906-40.297 129.5-88.907 178.112-69.003 69.003-164.593 101.463-260.352 89.66 7.475 62.549-3.667 124.894-32.446 180.873-5.050 9.824-17.107 13.696-26.933 8.642-9.824-5.050-13.692-17.108-8.64-26.932 54.65-106.303 34.539-234.557-50.044-319.14-84.659-84.663-217.474-104.393-322.982-47.983-4.786 2.558-10.406 3.059-15.568 1.397l-141.146-45.508 45.508 141.15c1.666 5.165 1.16 10.782-1.398 15.567-56.41 105.508-36.678 238.33 47.978 322.988 84.716 84.668 213.023 104.738 319.286 49.946 9.818-5.062 21.879-1.208 26.942 8.61 5.060 9.816 1.207 21.878-8.61 26.942-58.694 30.264-124.431 41.11-190.095 31.368-66.974-9.938-127.763-40.564-175.803-88.576-48.604-48.608-79.34-110.197-88.886-178.116-8.828-62.801 1.81-127.927 29.964-184.375l-54.932-170.381c-2.302-7.142-0.414-14.974 4.894-20.282 3.81-3.81 8.92-5.858 14.144-5.858 2.052 0 4.122 0.318 6.136 0.964l170.376 54.935c54.745-27.309 117.655-38.135 178.687-30.709-11.435-95.475 21.079-190.699 89.805-259.371 48.606-48.606 110.187-79.345 178.086-88.887 62.795-8.832 127.919 1.805 184.39 29.963l170.377-54.933c2.014-0.649 4.085-0.964 6.138-0.964 5.222 0 10.336 2.048 14.146 5.86 5.303 5.31 7.194 13.141 4.887 20.284zM831.84 44.493c-5.165 1.662-10.782 1.161-15.565-1.397-107.204-57.291-237.001-38.007-322.993 47.989-62.999 62.948-91.106 151.482-76.531 238.991 53.705 13.982 102.349 41.828 142.242 81.722 40.115 40.117 68.087 89.154 81.999 143.266 87.748 14.927 176.599-13.122 239.844-76.369 84.695-84.7 104.427-217.515 47.985-322.985-2.562-4.789-3.068-10.413-1.399-15.58l45.549-141.139-141.131 45.502zM479.104 647.411c0 85.818-69.79 155.633-155.573 155.633-85.813 0-155.63-69.815-155.63-155.633 0-85.786 69.816-155.575 155.63-155.575 35.674 0 68.557 12.098 94.831 32.369l50.839-50.842c3.906-3.904 9.024-5.858 14.142-5.858s10.238 1.954 14.142 5.858c7.81 7.808 7.812 20.474 0 28.286l-50.829 50.829c20.316 26.291 32.448 59.215 32.448 94.933zM418.074 581.060l-47.012 47.012c-7.81 7.806-20.474 7.808-28.284 0-7.81-7.81-7.812-20.474 0-28.286l46.995-46.999c-18.773-13.182-41.611-20.954-66.244-20.954-63.757 0-115.629 51.849-115.629 115.578 0 63.759 51.873 115.631 115.629 115.631 63.727 0 115.573-51.874 115.573-115.631 0.002-24.678-7.802-47.556-21.028-66.351zM545.175 825.004c5.062 0 10.129 1.91 14.022 5.74 7.876 7.744 7.983 20.406 0.239 28.284l-0.058 0.058c-7.746 7.872-20.378 7.954-28.256 0.208-7.874-7.744-7.953-20.436-0.207-28.312 3.915-3.982 9.086-5.978 14.259-5.978z" />
<glyph unicode="&#xe904;" glyph-name="qr-code" d="M460.8-12.8h102.402c9.425 0 17.067 7.642 17.067 17.067s-7.642 17.067-17.067 17.067h-102.402c-9.425 0-17.067-7.642-17.067-17.067s7.642-17.067 17.067-17.067zM426.667 686.933h-170.667v-170.667h170.667v170.667zM392.533 550.4h-102.4v102.4h102.4v-102.4zM375.465 635.733h-68.267v-68.267h68.267v68.267zM256 209.067h170.667v170.667h-170.667v-170.667zM290.133 345.6h102.4v-102.4h-102.4v102.4zM375.465 328.533h-68.267v-68.267h68.267v68.267zM716.798 328.533h-68.267v-68.267h68.267v68.267zM580.269 243.2h-136.535v-34.133h136.535v34.133zM563.202 311.467h-34.135v-51.2h34.135v51.2zM563.2 362.667h-68.267v-34.133h68.267v34.133zM580.269 550.4h-85.333v17.067h102.4v119.467h-85.333v-34.133h51.2v-51.2h-17.067v34.133h-34.133v-34.133h-17.067v85.333h-34.133v-170.667h119.467v34.133zM768 686.933h-153.6v-34.133h153.6v34.133zM699.733 635.733h-34.133v-51.2h34.133v51.2zM494.933 294.4h-51.2v-34.133h51.2v34.133zM836.267 465.067v409.6c-0.055 47.104-38.229 85.278-85.333 85.333h-477.867c-47.104-0.055-85.278-38.229-85.333-85.333v-409.6h-187.733v-34.133h187.733v-409.6c0.055-47.104 38.229-85.278 85.333-85.333h477.867c47.104 0.055 85.278 38.229 85.333 85.333v409.6h187.733v34.133h-187.733zM802.133 21.333c0-28.277-22.923-51.2-51.2-51.2h-477.867c-28.277 0-51.2 22.923-51.2 51.2v17.067h580.267v-17.067zM802.133 72.533h-580.267v358.4h34.133v-34.133h34.133v34.133h51.2v-34.133h85.333v34.133h34.133v-51.2h-17.067v-68.267h34.133v68.267h51.2v34.133h-34.133v17.067h119.467v-17.067h34.133v17.067h17.067v-51.2h-68.267v-170.667h170.667v170.667h-68.267v51.2h34.133v-34.133h34.133v34.133h34.133v-358.4zM733.867 345.6v-102.4h-102.4v102.4h102.4zM802.133 465.067h-34.133v170.667h-34.133v-170.667h-85.333v17.067h68.267v34.133h-17.067v51.2h-34.133v-51.2h-17.067v34.133h-34.133v-85.333h-34.133v34.133h-34.133v-34.133h-51.2v34.133h-34.133v-34.133h-51.2v34.133h-34.133v-34.133h-34.133v34.133h-34.133v-34.133h-17.067v17.067h-34.133v-17.067h-34.133v358.4h580.267v-358.4zM802.133 857.6h-580.267v17.067c0 28.277 22.923 51.2 51.2 51.2h477.867c28.277 0 51.2-22.923 51.2-51.2v-17.067zM597.331 413.867h-34.133v-34.133h34.133v34.133zM648.533 635.733h-34.133v-34.133h34.133v34.133zM614.4 908.8h-102.4c-9.425 0-17.067-7.642-17.067-17.067s7.642-17.067 17.067-17.067h102.4c9.425 0 17.067 7.642 17.067 17.067s-7.642 17.067-17.067 17.067zM443.731 908.8h-34.133c-9.425 0-17.067-7.642-17.067-17.067s7.642-17.067 17.067-17.067h34.133c9.425 0 17.067 7.642 17.067 17.067s-7.642 17.067-17.067 17.067z" />
<glyph unicode="&#xe905;" glyph-name="transaction" d="M802.135 106.667h-580.267c-9.421 0-17.067-7.629-17.067-17.067v-80.794c0-40.158 32.666-72.806 72.806-72.806h468.787c40.141 0 72.806 32.649 72.806 72.806v80.794c0 9.438-7.646 17.067-17.067 17.067zM785.069 8.806c0-21.316-17.34-38.671-38.656-38.671h-468.804c-21.335 0-38.675 17.355-38.675 38.671v63.729h546.135v-63.729zM563.2 38.4h-102.4c-9.419 0-17.067-7.627-17.067-17.065s7.648-17.067 17.067-17.067h102.4c9.421 0 17.067 7.629 17.067 17.067s-7.646 17.065-17.067 17.065zM716.8 38.4h-68.265c-9.421 0-17.067-7.627-17.067-17.065s7.646-17.067 17.067-17.067h68.265c9.421 0 17.067 7.629 17.067 17.067s-7.646 17.065-17.067 17.065zM375.467 38.4h-68.265c-9.421 0-17.067-7.627-17.067-17.065s7.646-17.067 17.067-17.067h68.265c9.421 0 17.067 7.629 17.067 17.067s-7.644 17.065-17.067 17.065zM746.413 960h-468.804c-40.141 0-72.806-32.648-72.806-72.806v-80.794c0-9.438 7.646-17.066 17.067-17.066h580.265c9.421 0 17.067 7.628 17.067 17.066v80.794c0.002 40.158-32.663 72.806-72.787 72.806zM785.069 823.466h-546.133v63.728c0 21.316 17.34 38.674 38.675 38.674h468.787c21.333 0 38.673-17.356 38.673-38.674v-63.728h-0.002zM597.331 891.734h-170.667c-9.419 0-17.065-7.628-17.065-17.066s7.646-17.066 17.065-17.066h170.667c9.421 0 17.067 7.628 17.067 17.066s-7.646 17.066-17.067 17.066zM460.8 721.067h-443.734c-9.42 0-17.066-7.627-17.066-17.065v-307.2c0-9.438 7.646-17.067 17.066-17.067h443.734c9.421 0 17.067 7.629 17.067 17.067v307.2c0 9.438-7.646 17.065-17.067 17.065zM443.733 413.869h-409.599v273.067h409.599v-273.067zM967.255 516.267h-364.373c-31.3 0-56.747-25.446-56.747-56.747v-227.84c0-31.3 25.446-56.747 56.747-56.747h364.373c31.3 0 56.747 25.446 56.747 56.747v227.84c0 31.3-25.446 56.747-56.747 56.747zM989.869 231.68c0-12.459-10.14-22.613-22.615-22.613h-364.371c-12.476 0-22.615 10.153-22.615 22.613v227.84c0 12.459 10.14 22.613 22.615 22.613h364.373c12.476 0 22.615-10.155 22.615-22.613v-227.84h-0.002zM238.933 635.733c-47.052 0-85.334-38.278-85.334-85.333 0-47.051 38.28-85.333 85.334-85.333s85.333 38.281 85.333 85.333c-0.002 47.053-38.283 85.333-85.333 85.333zM238.933 499.2c-28.228 0-51.2 22.972-51.2 51.2s22.972 51.2 51.2 51.2c28.228 0 51.2-22.972 51.2-51.2s-22.972-51.2-51.2-51.2zM119.466 721.067h-102.4c-9.42 0-17.066-7.627-17.066-17.065v-102.4c0-9.438 7.646-17.067 17.066-17.067 65.878 0 119.466 53.606 119.466 119.467 0.002 9.438-7.644 17.065-17.066 17.065zM34.134 620.393v66.541h66.56c-6.81-33.382-33.178-59.75-66.56-66.541zM460.8 721.067h-102.4c-9.421 0-17.067-7.627-17.067-17.065 0-65.86 53.589-119.467 119.467-119.467 9.419 0 17.065 7.629 17.065 17.067v102.4c0 9.438-7.646 17.065-17.065 17.065zM443.733 620.393c-33.382 6.79-59.75 33.158-66.56 66.541h66.56v-66.541zM460.8 516.267c-65.879 0-119.467-53.606-119.467-119.467 0-9.438 7.646-17.067 17.067-17.067h102.4c9.419 0 17.065 7.629 17.065 17.067v102.4c0 9.438-7.646 17.067-17.065 17.067zM443.733 413.867h-66.56c6.81 33.38 33.178 59.748 66.56 66.541v-66.541zM17.066 516.267c-9.42 0-17.066-7.629-17.066-17.067v-102.4c0-9.438 7.646-17.067 17.066-17.067h102.4c9.42 0 17.066 7.629 17.066 17.067 0.002 65.86-53.588 119.467-119.466 119.467zM34.134 413.867v66.541c33.382-6.793 59.75-33.161 66.56-66.541h-66.56zM967.255 516.267h-364.373c-31.3 0-56.747-25.446-56.747-56.747v-62.72c0-9.438 7.646-17.067 17.067-17.067h443.733c9.421 0 17.067 7.629 17.067 17.067v62.72c0 31.3-25.446 56.747-56.747 56.747zM989.869 413.867h-409.602v45.653c0 12.459 10.14 22.613 22.615 22.613h364.373c12.476 0 22.615-10.155 22.615-22.613v-45.653h-0.002zM699.733 294.4h-68.267c-9.419 0-17.067-7.627-17.067-17.065s7.648-17.067 17.067-17.067h68.267c9.419 0 17.067 7.629 17.067 17.067s-7.648 17.065-17.067 17.065zM938.665 294.4h-68.265c-9.421 0-17.067-7.627-17.067-17.065s7.646-17.067 17.067-17.067h68.265c9.421 0 17.067 7.629 17.067 17.067 0.002 9.438-7.644 17.065-17.067 17.065zM802.131 294.4h-34.133c-9.419 0-17.065-7.627-17.065-17.065s7.646-17.067 17.065-17.067h34.133c9.421 0 17.067 7.629 17.067 17.067s-7.646 17.065-17.067 17.065zM602.882 482.133h199.253c9.421 0 17.067 7.629 17.067 17.067v307.2c0 9.438-7.646 17.066-17.067 17.066h-580.267c-9.421 0-17.067-7.628-17.067-17.066v-102.4c0-9.438 7.646-17.067 17.067-17.067h221.865v-273.065h-221.865c-9.421 0-17.067-7.629-17.067-17.067v-307.2c0-9.438 7.646-17.067 17.067-17.067h580.265c9.421 0 17.067 7.629 17.067 17.067v102.398c0 9.438-7.646 17.067-17.067 17.067h-199.251c-12.476 0-22.613 10.153-22.613 22.613v227.84c0 12.459 10.138 22.613 22.613 22.613zM602.882 174.933h182.187v-68.265h-546.133v273.065h221.867c9.421 0 17.067 7.629 17.067 17.067v307.2c0 9.438-7.646 17.067-17.067 17.067h-221.867v68.268h546.135v-273.065h-182.189c-31.283 0-56.747-25.446-56.747-56.747v-227.84c0-31.302 25.463-56.749 56.747-56.749zM102.399 328.533c-9.42 0-17.066-7.627-17.066-17.065v-153.6c0-9.44 7.646-17.067 17.066-17.067s17.066 7.627 17.066 17.067v153.6c0 9.436-7.646 17.065-17.066 17.065zM114.468 323.531c-6.656 6.671-17.476 6.671-24.132 0l-51.2-51.2c-6.674-6.675-6.674-17.461 0-24.132 3.328-3.328 7.698-5.001 12.066-5.001 4.37 0 8.738 1.673 12.066 5.001l51.2 51.2c6.674 6.673 6.674 17.459 0 24.132zM165.666 272.331l-51.2 51.2c-6.656 6.671-17.476 6.671-24.132 0-6.674-6.675-6.674-17.461 0-24.132l51.2-51.2c3.328-3.328 7.698-5.001 12.066-5.001 4.37 0 8.738 1.673 12.066 5.001 6.674 6.673 6.674 17.459 0 24.132zM921.602 755.2c-9.419 0-17.067-7.628-17.067-17.065v-153.602c0-9.438 7.648-17.065 17.067-17.065 9.421 0 17.067 7.627 17.067 17.065v153.602c0 9.437-7.646 17.065-17.067 17.065zM984.864 647.802c-6.656 6.675-17.476 6.675-24.132 0l-51.2-51.2c-6.675-6.673-6.675-17.459 0-24.132 3.328-3.328 7.697-5.001 12.066-5.001s8.738 1.673 12.066 5.001l51.2 51.2c6.673 6.673 6.673 17.459 0 24.132zM933.664 596.602l-51.2 51.2c-6.656 6.675-17.476 6.675-24.132 0-6.671-6.673-6.671-17.459 0-24.132l51.2-51.2c3.328-3.328 7.699-5.001 12.066-5.001 4.369 0 8.738 1.673 12.066 5.001 6.673 6.673 6.673 17.459 0 24.132z" />
<glyph unicode="&#xe906;" glyph-name="bank" d="M32 708.098l463.531 223.188 496.469-222.548v-116.736h-960v116.096zM96 656.002h832v11.264l-431.531 193.45-400.469-192.81v-11.904zM928 144h-832v-64h832v64zM32 32h960v-64h-960v64zM176 528h-64v-320h64v320zM848 528h64v-320h-64v320zM720 528h-64v-320h64v320zM304 528h64v-320h-64v320zM544 528h-64v-320h64v320z" />
<glyph unicode="&#xe907;" glyph-name="currency" d="M946.535 633.513c19.533 47.311 19.412 99.798-0.681 135.688-19.326 40.685-58.314 82.568-104.419 112.131-51.194 32.825-104.323 46.936-149.604 39.717-33.531-5.348-73.408-27.252-112.333-55.519-5.145 0.192-10.378 0.321-15.701 0.321-35.616 0-70.94-4.358-105.161-12.933-9.172 12.371-19.569 23.931-31.148 34.495-5.998 5.471-15.291 5.048-20.762-0.95-5.471-5.996-5.047-15.291 0.951-20.762 29.372-26.801 50.235-60.779 60.665-98.654-8.85-9.33-16.894-18.252-23.905-26.466l-12.89 12.518c-1.645 1.597-3.44 2.981-5.337 4.164-20.3 70.853-84.733 119.726-159.14 119.726-91.296 0-165.571-74.283-165.571-165.591 0-91.295 74.275-165.57 165.571-165.57 21.084 0 41.76 3.994 61.068 11.653-3.256-18.603-5.319-34.505-6.602-47.624-17.684-4.773-35.959-7.21-54.471-7.21-115.11 0-208.757 93.648-208.757 208.756 0.004 115.11 93.651 208.757 208.759 208.757 33.717 0 65.864-7.776 95.545-23.11 7.212-3.727 16.079-0.899 19.803 6.312s0.899 16.078-6.313 19.802c-33.414 17.264-71.12 26.39-109.035 26.39-131.315 0-238.149-106.834-238.149-238.151 0-84.296 44.024-158.498 110.286-200.834-4.439-24.965-6.69-50.481-6.69-76.004 0-69.371 16.751-137.824 48.547-198.944-19.598-47.466-19.42-100.143 0.87-136.044 17.278-36.172 49.954-73.293 89.831-101.978 42.837-30.816 89.569-48.972 131.586-51.131 0.257-0.013 0.512-0.019 0.767-0.019 7.77 0 14.261 6.094 14.666 13.945 0.414 8.106-5.818 15.013-13.926 15.431-36.448 1.872-77.619 18.077-115.929 45.635-12.562 9.036-24.304 18.942-34.92 29.366 9.747-1.645 20.62-2.353 32.728-1.856 40.507 1.661 94.599 31.19 160.772 87.765 52.498 44.885 99.838 95.83 123.388 122.203 5.245 5.877 4.926 14.844-0.725 20.332l-27.002 26.219c-0.552 0.535-0.777 1.197-0.671 1.966 0.107 0.759 0.499 1.323 1.162 1.68 91.796 49.252 192.84 68.307 232.040 74.219 0.876 0.136 1.503-0.236 1.868-0.573 0.499-0.451 0.738-1.009 0.702-1.655-4.901-91.957-42.237-200.702-58.071-243.217-0.102-0.276-0.414-1.116-1.58-1.381-0.794-0.18-1.5 0.017-2.088 0.589l-24.319 23.615c-2.978 2.892-7.047 4.38-11.187 4.123-4.144-0.27-7.981-2.278-10.562-5.53-42.72-53.812-140.271-146.658-213.991-175.039-7.573-2.915-11.35-11.421-8.434-18.996 2.917-7.576 11.425-11.352 18.998-8.434 27.337 10.526 55.814 28.183 81.331 46.734 5.066-0.186 10.209-0.311 15.433-0.311 115.202 0 223.506 44.862 304.966 126.32 81.458 81.46 126.32 189.766 126.32 304.966 0.002 69.375-16.75 137.83-48.55 198.951zM920.020 755.182c0.010-0.018 0.023-0.033 0.031-0.049 12.744-22.511 14.873-55.375 6.765-87.687-29.464 45.8-67.507 85.873-111.756 117.667 9.692 3.363 18.756 5.338 27.015 5.679 37.474 1.534 63.691-10.439 77.945-35.61zM541.55 835.839c-17.615-14.732-34.484-30.125-49.856-45.128-4.395 12.471-9.818 24.501-16.198 36.008 21.657 4.854 43.754 7.899 66.054 9.12zM435.392 708.391c2.978-2.894 7.043-4.391 11.187-4.123s7.981 2.276 10.564 5.53c53.501 67.411 169.508 171.091 239.317 182.226 38.151 6.077 83.997-6.508 129.112-35.436 17.454-11.191 33.738-24.248 48.024-38.283-9.747 1.644-20.61 2.354-32.724 1.856-40.507-1.666-94.599-31.195-160.774-87.772-52.456-44.847-99.823-95.805-123.39-122.19-5.247-5.877-4.932-14.844 0.723-20.332l27.006-26.229c0.552-0.535 0.775-1.193 0.669-1.958-0.107-0.754-0.495-1.319-1.162-1.676-91.704-49.219-192.817-68.307-232.032-74.23-0.882-0.134-1.509 0.238-1.877 0.573-0.499 0.453-0.736 1.014-0.702 1.659 4.88 91.807 42.218 200.656 58.048 243.196 0.28 0.754 0.819 1.227 1.605 1.402 0.188 0.042 0.372 0.065 0.55 0.065 0.573 0 1.087-0.219 1.536-0.654l24.321-23.623zM267.072 575.218c-75.089 0-136.178 61.089-136.178 136.177 0 75.1 61.089 136.197 136.178 136.197 57.864 0 108.373-35.939 127.82-89.103-6.882-3.565-12.282-9.571-15.061-17.041-21.636-58.15-35.56-107.582-44.511-147.917-20.666-11.989-44.13-18.313-68.249-18.313zM166.518 495.549c20.462-9.569 42.493-16.317 65.602-19.73-1.195-2.863-2.247-5.699-3.072-8.418-5.16-17.057-6.733-32.743-4.669-46.605 3.444-23.412 23.876-40.601 47.537-40.118 27.615 0.688 96.041-1.749 134.518-38.49 6.756-6.46 10.353-15.498 9.866-24.835-1.778-35.662-14.263-125.34-90.269-206.762-45.737 33.65-84.208 76.808-112.207 126.261-33.963 59.986-51.915 128.351-51.915 197.711 0 20.444 1.552 40.881 4.609 60.984zM285.531 78.338c-37.462-1.546-63.697 10.439-77.942 35.606-0.028 0.048-0.061 0.090-0.088 0.14-12.702 22.507-14.817 55.329-6.72 87.604 29.466-45.804 67.513-85.88 111.766-117.676-9.69-3.362-18.756-5.337-27.017-5.674zM529.757 335.034c-8.986-4.823-14.952-13.389-16.369-23.504-1.398-9.973 2.079-20.114 9.302-27.13l16.844-16.355c-54.059-59.394-118.207-120.144-173.689-156.407 66.372 82.488 78.029 168.375 79.816 204.223 0.93 17.855-5.962 35.196-18.917 47.58-19.218 18.353-65.001 48.828-155.516 46.625-8.777-0.192-16.476 6.248-17.77 15.032-1.419 9.552-0.165 20.923 3.72 33.769 1.078 3.544 3.268 8.898 6.372 14.424 1.172-0.019 2.343-0.046 3.519-0.046 18.292 0 36.394 2.086 54.034 6.184 1.574-5.645 4.706-10.798 9.178-14.856 5.889-5.346 13.439-8.228 21.249-8.228 1.582 0 3.179 0.119 4.771 0.357 40.726 6.152 145.793 26.005 241.541 77.398 8.988 4.821 14.957 13.389 16.371 23.5 1.415 10.119-1.973 20.004-9.3 27.117l-16.848 16.363c9.713 10.668 19.757 21.383 30.014 31.989 0.903-10.202 4.361-20.252 10.474-29.073 10.792-15.559 21.694-29.755 32.373-42.172 13.416-15.673 34.505-23.448 55.072-20.296 22.482 3.475 55.179 9.132 83.312 16.355 8.798 2.282 18.187-1.91 22.342-9.987 3.304-6.397 5.82-12.948 7.477-19.477 2.038-8.027-0.984-16.338-7.68-21.165-16.762-12.043-56.188-34.749-131.933-51.518-28.781-6.384-48.007-34.212-43.767-63.363 0.426-2.926 0.917-5.862 1.442-8.798-37.311-11.694-78.137-27.458-117.434-48.542zM771.298 412.415c-19.65-2.961-54.314-9.13-95.681-20.493-0.257 1.563-0.554 3.128-0.782 4.687-2.035 13.993 7.208 27.36 21.038 30.425 76.817 17.009 120.017 40.028 142.744 56.36 16.572 11.943 24.031 32.457 19.003 52.26-2.209 8.694-5.521 17.352-9.841 25.711-10.545 20.497-33.514 30.766-55.812 24.979-26.944-6.917-58.627-12.392-80.443-15.765-10.581-1.622-21.406 2.347-28.287 10.388-10.044 11.676-20.315 25.063-30.526 39.777-8.328 12.014-7.137 28.438 2.834 39.056 47.338 50.464 101.579 83.073 141.159 102.296 47.886-34.138 88.081-78.621 117.075-129.823 33.963-59.981 51.915-128.349 51.915-197.709 0-81.82-24.599-157.991-66.756-221.552-49.472-0.472-98.442 11.822-117.858 17.356-0.061 0.017-0.123 0.040-0.184 0.059 12.689 46.345 24.102 99.855 26.731 149.134 0.506 9.483-3.254 18.595-10.311 24.994-7.091 6.434-16.583 9.293-26.016 7.86zM594.321 40.109c12.165 10.464 24.279 21.496 35.934 32.682 22.869-3.806 45.326-9.588 67.131-17.266-35.067-12.397-72.347-20.064-111.077-22.212 2.761 2.311 5.44 4.585 8.012 6.796zM736.471 71.703c-26.104 11.408-53.265 20.173-81.099 26.191 10.048 10.464 19.439 20.789 27.809 30.634l12.873-12.499c7.713-7.492 18.578-10.545 29.061-8.169 10.457 2.37 18.925 9.787 22.639 19.815 6.169 16.562 15.513 42.933 25.021 74.503 0.084-0.025 0.163-0.056 0.251-0.082 17.893-5.099 59.394-15.602 104.828-18.004-37.844-47.353-86.143-85.997-141.383-112.391zM291.393 726.442c-18.727 5.452-39.487 12.069-51.48 19.815-5.59 3.612-5.548 9.408-5.026 12.541 1.097 6.582 6.506 14.666 18.39 17.615 26.125 6.48 42.943-5.193 43.882-5.867 6.457-4.809 15.596-3.525 20.476 2.9 4.911 6.463 3.651 15.683-2.815 20.593-0.767 0.584-13.513 10.031-34.279 12.886v7.866c0 8.117-6.581 14.697-14.698 14.697s-14.698-6.58-14.698-14.697v-8.773c-1.628-0.316-3.271-0.662-4.947-1.078-21.178-5.254-37-21.47-40.306-41.31-2.822-16.925 4.102-33.043 18.070-42.065 12.229-7.902 29.385-14.666 59.214-23.349 15.487-4.508 23.454-13.634 21.859-25.042-2.43-17.389-22.049-26.871-39.274-26.965-19.88-0.102-27.734 0.616-44.563 9.682-7.141 3.849-16.060 1.179-19.909-5.968-3.851-7.143-1.178-16.058 5.967-19.909 17.154-9.241 28.969-12.138 43.886-12.932v-9.078c0-8.117 6.581-14.698 14.698-14.698s14.698 6.581 14.698 14.698v10.127c31.359 5.632 50.458 28.463 53.605 50.97 3.666 26.208-13.116 48.711-42.753 57.34z" />
<glyph unicode="&#xe908;" glyph-name="hand" d="M995.181 268.715c-20.93 33.877-65.156 44.781-102.857 25.372l-170.901-87.744c-14.18 15.093-34.291 24.548-56.576 24.548h-116.422c-6.976 0-8.582 0.567-8.832 0.683-0.966 0.442-3.959 3.26-6.596 5.747l-1.124 1.058c-93.551 88.119-172.702 82.543-262.797 47.055-14.694-5.824-15.258-5.847-29.666-6.483l-27.799-0.032c-7.026 22.539-28.070 38.942-52.868 38.942h-85.634c-30.53 0-55.368-24.864-55.368-55.426v-224.617c0-30.532 24.838-55.371 55.368-55.371h85.634c24.82 0 45.878 16.416 52.886 38.963h49.216c4.324 0 4.324 0 9.167-1.357 1.877-0.525 4.194-1.175 7.174-1.963l221.476-59.238c9.751-2.645 18.692-5.244 27.341-7.755 28.243-8.205 51.977-15.098 76.71-15.095 27.893 0 57.058 8.77 95.377 34.325 0.169 0.113 0.337 0.228 0.503 0.348l273.086 194.468c34.633 24.672 44.736 69.195 23.501 103.571zM174.11 37.818c0-8.331-7.038-15.371-15.368-15.371h-85.634c-8.33 0-15.368 7.040-15.368 15.371v224.617c0 8.363 7.038 15.426 15.368 15.426h85.634c8.33 0 15.368-7.063 15.368-15.426v-224.617zM948.476 197.726l-272.834-194.291c-56.629-37.702-80.623-30.731-138.479-13.922-8.819 2.56-17.937 5.207-28.098 7.962l-221.583 59.268c-2.797 0.742-4.945 1.344-6.684 1.83-7.699 2.155-10.581 2.837-19.953 2.837h-46.735v177.489h24.529c0.297 0 0.593 0.004 0.89 0.019l1.641 0.073c17.549 0.774 22.46 1.261 42.601 9.244 80.070 31.541 141.845 35.277 220.685-38.982l1.101-1.039c13.058-12.309 20.591-17.323 42.867-17.323h116.422c20.781 0 37.69-16.937 37.69-37.751 0-20.781-16.909-37.69-37.69-37.69h-188.666c-11.046 0-20-8.956-20-20s8.954-20 20-20h188.666c42.837 0 77.69 34.852 77.69 77.69 0 6.193-0.749 12.209-2.123 17.986l170.202 87.386c16.529 8.512 39.2 7.533 50.537-10.82 10.014-16.205 4.563-37.685-12.674-49.965zM595.503 506.479c0-11.044 8.954-20 20-20h110.453c11.044 0 20 8.956 20 20v66.449h66.387c11.046 0 20 8.958 20 20v110.453c0 11.044-8.954 20-20 20h-66.387v66.39c0 11.044-8.956 20-20 20h-110.453c-11.046 0-20-8.956-20-20v-66.39h-66.445c-11.046 0-20-8.956-20-20v-110.455c0-11.042 8.954-20 20-20h66.445v-66.447zM549.056 612.926v70.455h66.445c11.046 0 20 8.956 20 20v66.39h70.453v-66.39c0-11.044 8.954-20 20-20h66.387v-70.455h-66.387c-11.046 0-20-8.956-20-20v-66.449h-70.453v66.449c0 11.044-8.954 20-20 20h-66.445zM438.901 500.796c6.178-9.154 18.609-11.567 27.765-5.387s11.569 18.611 5.389 27.765c-20.030 29.673-34.308 56.986-41.318 79.085-2.515 7.793-2.479 11.051-2.381 19.759 0.023 1.824 0.043 3.782 0.043 5.929v159.805c0.109 4.822 0.115 8.87 0.124 12.298 0.004 2.22 0.009 4.612 0.055 6.482 1.621 0.91 3.71 2.022 5.649 3.052 2.833 1.508 6.319 3.364 10.391 5.63l226.078 102.81 226.084-102.814c4.021-2.236 7.452-4.058 10.374-5.612 1.946-1.034 4.043-2.146 5.666-3.058 0.043-1.852 0.047-4.204 0.051-6.386 0.006-3.342 0.013-7.486 0.122-12.404v-159.807c0-2.148 0.023-4.107 0.043-5.933 0.098-8.704 0.137-11.959-2.402-19.823-26.923-84.442-145.084-215.806-219.401-260.169-7.505-4.514-14.225-6.707-20.54-6.707s-13.033 2.193-20.617 6.752c-17.728 10.551-38.78 26.699-60.879 46.694-8.19 7.411-20.836 6.782-28.25-1.41-7.411-8.192-6.78-20.838 1.412-28.25 24.375-22.054 47.002-39.351 67.183-51.362 13.907-8.361 27.366-12.425 41.15-12.425s27.245 4.064 41.097 12.39c81.69 48.764 207.076 188.623 236.93 282.263 4.525 14.007 4.431 22.167 4.311 32.499-0.019 1.687-0.038 3.492-0.038 5.476v160.033c0 0.152-0.002 0.302-0.004 0.456-0.107 4.64-0.111 8.518-0.117 11.792-0.038 25.866-4.070 32.548-26.953 44.708-2.891 1.538-6.315 3.354-10.368 5.618-0.48 0.27-0.971 0.518-1.472 0.744l-235.104 106.912c-5.261 2.394-11.298 2.394-16.559 0l-235.106-106.916c-0.506-0.228-1.003-0.48-1.487-0.752-4.062-2.272-7.488-4.096-10.385-5.634-22.837-12.152-26.863-18.846-26.916-44.766-0.006-3.256-0.013-7.106-0.119-11.708-0.002-0.152-0.004-0.302-0.004-0.456v-160.029c0-1.982-0.019-3.789-0.041-5.474-0.117-10.332-0.209-18.494 4.282-32.405 8.237-25.967 23.804-55.998 46.261-89.267zM497.346 453.769c-7.808-7.81-7.808-20.474 0-28.286l0.060-0.058c3.898-3.898 8.996-5.845 14.099-5.845 5.12 0 10.244 1.961 14.157 5.875 7.81 7.81 7.78 20.503-0.030 28.314s-20.476 7.81-28.286 0z" />
<glyph unicode="&#xe909;" glyph-name="mobile-banking" d="M695.902 949.551h267.494c27.652 0 50.155-22.503 50.155-50.155v-434.678c0-27.652-22.503-50.155-50.155-50.155h-267.494c-27.652 0-50.155 22.503-50.155 50.155v434.678c0 27.652 22.503 50.155 50.155 50.155zM963.396 448c9.212 0 16.718 7.49 16.718 16.718v33.437h-300.931v-33.437c0-9.229 7.507-16.718 16.718-16.718h267.494zM679.184 531.592h300.931v300.931h-300.931v-300.931zM679.184 865.959h300.931v33.437c0 9.229-7.507 16.718-16.718 16.718h-267.494c-9.212 0-16.718-7.49-16.718-16.718v-33.437zM562.155 264.098c9.229 0 16.718 7.473 16.718 16.718v66.873c0 7.323-4.748 13.776-11.736 15.949l-267.494 83.592c-3.243 1.020-6.721 1.020-9.981 0l-267.494-83.592c-6.972-2.173-11.72-8.627-11.72-15.949v-66.873c0-9.245 7.49-16.718 16.718-16.718h16.718v-217.339h-16.718c-9.229 0-16.718-7.473-16.718-16.718v-66.873c0-9.245 7.49-16.718 16.718-16.718h534.988c9.229 0 16.718 7.473 16.718 16.718v66.873c0 9.245-7.49 16.718-16.718 16.718h-16.718v217.339h16.718zM43.886-20.114v33.437h501.551v-33.437h-501.551zM77.322 46.759v217.339h33.437v-217.339h-33.437zM144.196 46.759v217.339h33.437v-217.339h-33.437zM211.069 46.759v217.339h33.437v-217.339h-33.437zM277.943 46.759v217.339h33.437v-217.339h-33.437zM344.816 46.759v217.339h33.437v-217.339h-33.437zM411.69 46.759v217.339h33.437v-217.339h-33.437zM478.563 46.759v217.339h33.437v-217.339h-33.437zM528.718 297.535h-484.833v37.867l250.776 78.376 250.776-78.376v-37.867h-16.718zM311.38 364.408h-33.437v-33.437h33.437v33.437zM918.139 760.75l-71.772-71.772-38.335 38.335c-6.537 6.537-17.103 6.537-23.64 0l-66.873-66.873 23.64-23.64 55.054 55.054 38.335-38.335c6.537-6.537 17.103-6.537 23.64 0l83.592 83.592-23.64 23.639zM578.873 799.086h33.437v-33.437h-33.437v33.437zM545.437 799.086h-33.437v-33.437h33.437v33.437zM445.127 799.086h33.437v-33.437h-33.437v33.437zM411.69 799.086h-33.437v-33.437h33.437v33.437zM311.38 799.086h33.437v-33.437h-33.437v33.437zM277.943 799.086h-33.437v-33.437h33.437v33.437zM177.633 799.086h33.437v-33.437h-33.437v33.437zM144.196 799.086h-33.437v-33.437h33.437v33.437zM110.759 732.212h33.437v-33.437h-33.437v33.437zM144.196 665.339h-33.437v-33.437h33.437v33.437zM110.759 598.465h33.437v-33.437h-33.437v33.437zM144.196 531.592h-33.437v-33.437h33.437v33.437zM110.759 464.718h33.437v-33.437h-33.437v33.437zM612.31 113.633h-33.437v-33.437h33.437v33.437zM645.747 113.633h33.437v-33.437h-33.437v33.437zM746.057 113.633h-33.437v-33.437h33.437v33.437zM779.494 113.633h33.437v-33.437h-33.437v33.437zM879.804 113.633h-33.437v-33.437h33.437v33.437zM913.241 113.633h33.437v-33.437h-33.437v33.437zM946.678 180.506h-33.437v-33.437h33.437v33.437zM913.241 247.38h33.437v-33.437h-33.437v33.437zM946.678 314.253h-33.437v-33.437h33.437v33.437zM913.241 381.127h33.437v-33.437h-33.437v33.437z" />
<glyph unicode="&#xe90a;" glyph-name="smartphone" d="M974.451 728.774h-379.87v148.645c0 45.535-37.045 82.581-82.581 82.581h-429.419c-45.535 0-82.581-37.046-82.581-82.581v-858.838c0-45.536 37.046-82.581 82.581-82.581h429.419c45.536 0 82.581 37.045 82.581 82.581v247.742h-33.033v-165.163h-528.516v693.678h528.516v-66.064h-148.646c-27.317 0-49.547-22.231-49.547-49.549v-240.905l-138.967-138.965h750.063c27.317 0 49.549 22.229 49.549 49.547v330.323c0 27.317-22.231 49.549-49.549 49.549zM561.549 68.13v-49.549c0-27.317-22.231-49.549-49.549-49.549h-429.419c-27.318 0-49.548 22.231-49.548 49.549v49.549h528.516zM33.032 827.871v49.548c0 27.318 22.231 49.548 49.548 49.548h429.419c27.317 0 49.549-22.231 49.549-49.548v-49.548h-528.516zM990.967 348.902c0-9.116-7.398-16.516-16.516-16.516h-670.323l92.258 92.26v254.579c0 9.118 7.401 16.516 16.516 16.516h561.549c9.118 0 16.516-7.398 16.516-16.516v-330.323zM858.839 530.581c-18.219 0-33.033 14.814-33.033 33.030 0 18.219 14.814 33.033 33.033 33.033 18.217 0 33.030-14.814 33.030-33.033h33.033c0 36.435-29.63 66.065-66.063 66.065-36.435 0-66.065-29.63-66.065-66.065 0-36.433 29.63-66.063 66.065-66.063 18.217 0 33.030-14.816 33.030-33.033 0-18.219-14.814-33.033-33.030-33.033-18.219 0-33.033 14.814-33.033 33.033h-33.033c0-36.435 29.63-66.065 66.065-66.065 36.433 0 66.063 29.63 66.063 66.065 0 36.433-29.63 66.065-66.063 66.065zM495.484 563.612c0-18.217 14.816-33.030 33.033-33.030 36.435 0 66.065-29.632 66.065-66.065 0-36.435-29.63-66.065-66.065-66.065s-66.065 29.63-66.065 66.065h33.033c0-18.219 14.816-33.033 33.033-33.033s33.033 14.814 33.033 33.033c0 18.217-14.816 33.033-33.033 33.033-36.435 0-66.065 29.63-66.065 66.063 0 36.435 29.63 66.065 66.065 66.065s66.065-29.63 66.065-66.065h-33.033c0 18.219-14.816 33.033-33.033 33.033s-33.033-14.814-33.033-33.033zM713.811 629.677l-20.134-80.548-20.132 80.548h-45.933v-214.709h33.033v130.097l33.033-132.128 33.033 132.128v-130.097h33.033v214.709h-45.931zM231.226 35.095h132.13v-33.030h-132.13v33.030zM528.516 266.323h-33.033v-33.033h33.033v33.033zM429.419 266.323h33.033v-33.033h-33.033v33.033zM396.386 266.323h-33.030v-33.033h33.030v33.033zM297.291 266.323h33.033v-33.033h-33.033v33.033z" />
<glyph unicode="&#xe90b;" glyph-name="tax" horiz-adv-x="773" d="M508.819 661.345c2.736 3.877 4.907 8.123 6.441 12.612 6.882-1.16 13.446-3.78 19.226-7.69 11.632-7.86 25.274-12.219 39.305-12.578 4.435 0.017 8.85 0.424 13.21 1.208 18.359 3.135 34.726 13.437 45.486 28.636 5.762 9.086 15.084 15.322 25.673 17.193 10.595 1.86 21.485-0.809 29.999-7.381 15.324-10.604 34.222-14.685 52.548-11.346l-5.82 32.931c-10.587-1.87-21.477 0.807-29.993 7.371-31.934 21.853-75.477 14.171-98.016-17.283-5.764-9.084-15.086-15.322-25.684-17.191-4.823-0.972-9.812-0.848-14.595 0.351 9.893 2.612 19.044 7.469 26.751 14.196 14.334 11.893 23.356 29.004 25.078 47.551 0.449 10.751 5.404 20.808 13.657 27.714 8.205 6.988 18.996 10.123 29.658 8.629 18.587-1.69 37.060 4.253 51.175 16.449l-21.542 25.6c-8.336-6.735-19.021-9.837-29.667-8.612-38.58 2.947-72.457-25.47-76.252-63.984-0.441-10.734-5.39-20.792-13.617-27.707-8.238-6.905-18.996-10.039-29.65-8.62-10.432 0.809-20.923-0.587-30.774-4.113-4.606 7.983-11.323 14.547-19.414 18.963l74.752 149.323c2.596 5.2 2.311 11.371-0.759 16.31-3.070 4.931-8.482 7.918-14.286 7.886-11.78-0.106-23.086 4.604-31.299 13.037-29.518 27.192-74.946 27.192-104.456 0-8.294-8.359-19.586-13.053-31.355-13.053-11.78 0-23.063 4.694-31.355 13.053-29.543 27.176-74.982 27.176-104.523 0-8.246-8.441-19.586-13.151-31.38-13.037-5.797 0-11.184-2.996-14.229-7.927-3.053-4.923-3.331-11.086-0.735-16.269l74.661-149.323c-12.652-6.752-21.771-18.645-24.996-32.622-3.225-13.974-0.245-28.662 8.179-40.277-153.29-41.175-259.944-180.002-260.221-338.729v-300.933c0.049-46.149 37.445-83.535 83.592-83.594h601.865c46.141 0.059 83.535 37.445 83.594 83.594v300.933c-0.286 158.726-106.939 297.554-260.232 338.729zM269.602 894.702c8.301 8.359 19.592 13.061 31.38 13.061 11.778 0 23.078-4.702 31.378-13.061 29.527-27.168 74.957-27.168 104.492 0 8.286 8.359 19.558 13.061 31.33 13.061 11.763 0 23.044-4.702 31.33-13.061 7.985-7.045 17.176-12.604 27.136-16.4l-68.867-137.724h-146.522l-68.842 137.708c9.966 3.804 19.176 9.363 27.184 16.416zM300.933 673.704c-9.241 0-16.718 7.486-16.718 16.718s7.477 16.718 16.718 16.718h167.186c9.233 0 16.718-7.486 16.718-16.718s-7.486-16.718-16.718-16.718h-167.186zM735.614 21.684c0-27.698-22.459-50.157-50.157-50.157h-601.865c-27.706 0-50.156 22.459-50.156 50.157v300.933c0.188 175.355 142.295 317.455 317.651 317.651h66.876c175.346-0.196 317.455-142.296 317.651-317.651v-300.933zM272.386 200.698l200.631 200.62 23.64-23.64-200.62-200.631-23.65 23.65zM401.243 222.306c0 27.698 22.451 50.155 50.157 50.155 27.698 0 50.155-22.457 50.155-50.155s-22.457-50.155-50.155-50.155c-27.707 0-50.157 22.457-50.157 50.155zM434.682 222.306c0-9.233 7.477-16.718 16.718-16.718 9.233 0 16.718 7.486 16.718 16.718s-7.486 16.718-16.718 16.718c-9.241 0-16.718-7.486-16.718-16.718zM317.651 305.898c27.698 0 50.155 22.457 50.155 50.155s-22.457 50.155-50.155 50.155c-27.707 0-50.155-22.457-50.155-50.155s22.449-50.155 50.155-50.155zM317.651 372.772c9.233 0 16.718-7.486 16.718-16.718s-7.486-16.718-16.718-16.718c-9.241 0-16.718 7.486-16.718 16.718s7.477 16.718 16.718 16.718zM150.467 289.178c0 129.266 104.785 234.059 234.060 234.059 129.208-0.138 233.919-104.849 234.057-234.059 0-129.266-104.793-234.057-234.057-234.057-129.275 0-234.060 104.791-234.060 234.057zM183.904 289.178c0-110.801 89.822-200.62 200.623-200.62 110.742 0.121 200.499 89.87 200.62 200.62 0 110.801-89.83 200.622-200.62 200.622-110.801 0-200.623-89.822-200.623-200.622z" />
<glyph unicode="&#xe90c;" glyph-name="add" d="M968.533 520.533h-384v384c0 17.067-25.6 55.467-72.533 55.467s-72.533-38.4-72.533-55.467v-384h-384c-17.067 0-55.467-25.6-55.467-72.533s38.4-72.533 55.467-72.533h384v-384c0-17.067 25.6-55.467 72.533-55.467s72.533 38.4 72.533 55.467v384h384c17.067 0 55.467 25.6 55.467 72.533s-38.4 72.533-55.467 72.533z" />
<glyph unicode="&#xe90d;" glyph-name="alert" d="M1015.467 106.667l-448 746.667c-12.8 17.067-34.133 29.867-55.467 29.867s-42.667-12.8-55.467-29.867l-448-746.667c-12.8-21.333-12.8-42.667 0-64s34.133-29.867 55.467-29.867h900.267c21.333 0 42.667 12.8 55.467 29.867 8.533 21.333 8.533 46.933-4.267 64zM512 627.2c25.6 0 46.933-12.8 46.933-38.4 0-76.8-8.533-192-8.533-268.8 0-21.333-21.333-29.867-38.4-29.867-21.333 0-38.4 8.533-38.4 29.867 0 76.8-8.533 192-8.533 268.8 0 21.333 21.333 38.4 46.933 38.4zM512 136.533c-29.867 0-51.2 25.6-51.2 51.2 0 29.867 21.333 51.2 51.2 51.2 25.6 0 51.2-21.333 51.2-51.2 0-25.6-21.333-51.2-51.2-51.2z" />
<glyph unicode="&#xe90e;" glyph-name="arrow-down" d="M512 153.6c-17.067 0-38.4 8.533-51.2 21.333l-439.467 439.467c-29.867 29.867-29.867 72.533 0 102.4 25.6 29.867 72.533 29.867 102.4 0l388.267-384 388.267 388.267c29.867 29.867 72.533 29.867 102.4 0s29.867-72.533 0-102.4l-439.467-439.467c-12.8-17.067-34.133-21.333-51.2-25.6z" />
<glyph unicode="&#xe90f;" glyph-name="arrow-left" d="M217.6 448c0 17.067 8.533 38.4 21.333 51.2l439.467 439.467c29.867 29.867 72.533 29.867 102.4 0 29.867-25.6 29.867-72.533 0-102.4l-384-388.267 388.267-388.267c29.867-29.867 29.867-72.533 0-102.4s-72.533-29.867-102.4 0l-439.467 439.467c-17.067 12.8-21.333 34.133-25.6 51.2z" />
<glyph unicode="&#xe910;" glyph-name="arrow-pointer" d="M849.067 315.733l-640 640c-8.533 4.267-17.067 4.267-25.6 4.267s-12.8-12.8-12.8-21.333v-938.667c0-8.533 4.267-17.067 12.8-21.333s17.067 0 25.6 8.533l170.667 209.067 115.2-247.467c4.267-8.533 12.8-12.8 21.333-12.8h8.533l149.333 64 12.8 12.8v17.067l-119.467 247.467h264.533c8.533 0 17.067 4.267 21.333 12.8 0 8.533 0 17.067-4.267 25.6z" />
<glyph unicode="&#xe911;" glyph-name="arrow-right" d="M780.8 396.8l-439.467-439.467c-29.867-29.867-72.533-29.867-102.4 0s-29.867 72.533 0 102.4l388.267 388.267-384 388.267c-29.867 29.867-29.867 76.8 0 102.4 29.867 29.867 72.533 29.867 102.4 0l439.467-439.467c12.8-12.8 21.333-34.133 21.333-51.2-4.267-17.067-8.533-38.4-25.6-51.2z" />
<glyph unicode="&#xe912;" glyph-name="arrow-up" d="M563.2 716.8l439.467-439.467c29.867-29.867 29.867-72.533 0-102.4s-72.533-29.867-102.4 0l-388.267 388.267-388.267-384c-29.867-29.867-76.8-29.867-102.4 0-29.867 29.867-29.867 72.533 0 102.4l439.467 439.467c12.8 12.8 34.133 21.333 51.2 21.333 17.067-4.267 38.4-8.533 51.2-25.6z" />
<glyph unicode="&#xe913;" glyph-name="attach" d="M281.6-64c-68.267 0-132.267 25.6-183.467 76.8s-76.8 110.933-76.8 179.2 25.6 132.267 76.8 183.467l529.067 529.067c76.8 76.8 192 72.533 273.067-8.533s85.333-200.533 8.533-273.067l-494.933-499.2c-46.933-46.933-123.733-46.933-170.667 0s-46.933 123.733 0 170.667l337.067 337.067c12.8 12.8 29.867 12.8 42.667 0s12.8-29.867 0-42.667l-337.067-337.067c-25.6-25.6-25.6-64 0-89.6s64-25.6 89.6 0l494.933 503.467c51.2 51.2 46.933 136.533-8.533 192s-140.8 59.733-192 8.533l-529.067-533.333c-38.4-38.4-59.733-85.333-59.733-140.8 0-51.2 21.333-102.4 59.733-140.8s85.333-59.733 140.8-59.733c51.2 0 102.4 21.333 140.8 59.733l529.067 533.333c12.8 12.8 29.867 12.8 42.667 0s12.8-29.867 0-42.667l-533.333-529.067c-46.933-51.2-110.933-76.8-179.2-76.8z" />
<glyph unicode="&#xe914;" glyph-name="bag" d="M921.6 72.533l-59.733 665.6c0 12.8-12.8 21.333-25.6 21.333h-123.733c0 110.933-89.6 200.533-200.533 200.533s-200.533-89.6-200.533-200.533h-123.733c-12.8 0-25.6-8.533-25.6-21.333l-59.733-665.6v-4.267c0-72.533 68.267-132.267 153.6-132.267h512c85.333 0 153.6 59.733 153.6 136.533zM512 908.8c81.067 0 149.333-68.267 149.333-149.333h-298.667c0 81.067 68.267 149.333 149.333 149.333zM768-12.8h-512c-55.467 0-98.133 38.4-102.4 81.067l55.467 640h102.4v-89.6c0-12.8 12.8-25.6 25.6-25.6s25.6 12.8 25.6 25.6v89.6h298.667v-89.6c0-12.8 12.8-25.6 25.6-25.6s25.6 12.8 25.6 25.6v89.6h102.4l55.467-640c0-42.667-46.933-81.067-102.4-81.067z" />
<glyph unicode="&#xe915;" glyph-name="behance" d="M409.6 413.867c-12.8 8.533-29.867 12.8-51.2 12.8h-106.667v-119.467h102.4c8.533 0 17.067 0 25.6 4.267 8.533 0 17.067 4.267 21.333 8.533 8.533 4.267 12.8 8.533 17.067 17.067s4.267 17.067 4.267 29.867c4.267 21.333 0 38.4-12.8 46.933zM392.533 507.733c12.8 8.533 17.067 21.333 17.067 38.4 0 8.533 0 17.067-4.267 25.6-4.267 4.267-8.533 12.8-17.067 12.8-4.267 4.267-12.8 8.533-21.333 8.533-8.533 4.267-17.067 4.267-25.6 4.267h-89.6v-102.4h98.133c17.067 0 29.867 4.267 42.667 12.8zM0 960v-1024h1024v1024h-1024zM618.667 640h174.933v-42.667h-174.933v42.667zM512 302.933c-8.533-17.067-21.333-29.867-34.133-38.4s-29.867-17.067-51.2-21.333c-17.067-8.533-38.4-8.533-59.733-8.533h-213.333v435.2h204.8c21.333 0 38.4 0 55.467-4.267s29.867-8.533 42.667-17.067c12.8-8.533 21.333-21.333 29.867-34.133s8.533-29.867 8.533-51.2-4.267-38.4-17.067-55.467c-8.533-12.8-25.6-25.6-42.667-34.133 25.6-8.533 46.933-21.333 59.733-42.667s21.333-42.667 21.333-68.267c8.533-25.6 4.267-42.667-4.267-59.733zM866.133 371.2h-226.133c0-25.6 8.533-46.933 21.333-59.733s29.867-17.067 55.467-17.067c17.067 0 34.133 4.267 46.933 12.8s21.333 17.067 21.333 29.867h76.8c-12.8-38.4-29.867-64-55.467-81.067s-55.467-25.6-89.6-25.6c-25.6 0-46.933 4.267-68.267 12.8s-38.4 21.333-51.2 34.133c-12.8 12.8-25.6 34.133-34.133 51.2-8.533 21.333-12.8 42.667-12.8 68.267s4.267 46.933 12.8 64c8.533 21.333 17.067 38.4 34.133 51.2 12.8 12.8 29.867 25.6 51.2 34.133s42.667 12.8 64 12.8c25.6 0 51.2-4.267 68.267-17.067 21.333-8.533 38.4-25.6 51.2-42.667s21.333-38.4 29.867-59.733c4.267-21.333 4.267-42.667 4.267-68.267zM708.267 494.933c-12.8 0-25.6-4.267-34.133-8.533s-17.067-8.533-21.333-17.067c-4.267-8.533-8.533-12.8-12.8-21.333v-21.333h140.8c0 21.333-8.533 38.4-21.333 51.2-8.533 8.533-29.867 17.067-51.2 17.067z" />
<glyph unicode="&#xe916;" glyph-name="bell" d="M392.533 59.733c0-68.267 55.467-123.733 119.467-123.733s119.467 55.467 119.467 119.467h-238.933zM900.267 209.067l-110.933 162.133v200.533c0 136.533-98.133 247.467-221.867 273.067v59.733c0 29.867-25.6 55.467-55.467 55.467s-55.467-25.6-55.467-55.467v-59.733c-128-25.6-221.867-140.8-221.867-273.067v-200.533l-110.933-162.133c-12.8-17.067-12.8-38.4-4.267-55.467s29.867-29.867 46.933-29.867h682.667c21.333 0 38.4 12.8 46.933 29.867 17.067 17.067 17.067 38.4 4.267 55.467z" />
<glyph unicode="&#xe917;" glyph-name="book" d="M153.6 960h-102.4c-29.867 0-51.2-21.333-51.2-51.2v-921.6c0-29.867 21.333-51.2 51.2-51.2h102.4v1024zM921.6 960h-68.267v-153.6l-102.4 68.267-102.4-68.267v153.6h-443.733v-1024h716.8c55.467 0 102.4 46.933 102.4 102.4v819.2c0 55.467-46.933 102.4-102.4 102.4zM648.533 192h-290.133v102.4h290.133v-102.4zM750.933 396.8h-392.533v102.4h392.533v-102.4zM853.333 601.6h-494.933v102.4h494.933v-102.4z" />
<glyph unicode="&#xe918;" glyph-name="bookmark" d="M930.133 925.867c-8.533 12.8-21.333 21.333-34.133 29.867-8.533 4.267-17.067 4.267-29.867 4.267h-708.267c-12.8 0-21.333 0-29.867-4.267-17.067-8.533-25.6-17.067-34.133-29.867s-17.067-25.6-17.067-42.667v-870.4c0-17.067 4.267-29.867 12.8-42.667s21.333-21.333 34.133-29.867c12.8-4.267 21.333-4.267 34.133-4.267 21.333 0 38.4 8.533 55.467 21.333l298.667 285.867 298.667-285.867c17.067-12.8 34.133-21.333 55.467-21.333 12.8 0 21.333 0 29.867 4.267 12.8 4.267 25.6 17.067 34.133 29.867s12.8 25.6 12.8 42.667v870.4c4.267 17.067-4.267 29.867-12.8 42.667z" />
<glyph unicode="&#xe919;" glyph-name="box-2" d="M947.2 644.267h-870.4c-12.8 0-21.333-4.267-25.6-12.8-8.533-4.267-12.8-17.067-12.8-25.6v-588.8c0-8.533 4.267-21.333 12.8-25.6 8.533-8.533 17.067-12.8 25.6-12.8h866.133c12.8 0 21.333 4.267 25.6 12.8 8.533 8.533 12.8 17.067 12.8 25.6v588.8c0 12.8-4.267 21.333-12.8 25.6-4.267 8.533-12.8 12.8-21.333 12.8zM618.667 460.8c-8.533-8.533-17.067-12.8-25.6-12.8h-157.867c-8.533 0-21.333 4.267-25.6 12.8-8.533 8.533-12.8 17.067-12.8 25.6s4.267 21.333 12.8 25.6c8.533 8.533 17.067 12.8 25.6 12.8h157.867c8.533 0 21.333-4.267 25.6-12.8 8.533-8.533 12.8-17.067 12.8-25.6s-4.267-17.067-12.8-25.6zM1011.2 908.8c-8.533 8.533-17.067 12.8-25.6 12.8h-947.2c-8.533 0-17.067-4.267-25.6-12.8s-12.8-17.067-12.8-25.6v-157.867c0-12.8 4.267-21.333 12.8-29.867s17.067-12.8 25.6-12.8h947.2c8.533 0 21.333 4.267 25.6 12.8 8.533 8.533 12.8 17.067 12.8 29.867v157.867c0 8.533-4.267 17.067-12.8 25.6z" />
<glyph unicode="&#xe91a;" glyph-name="boxline-arrow-down" d="M849.067 315.733c-4.267 12.8-12.8 17.067-25.6 17.067h-200.533v597.333c0 8.533-4.267 17.067-8.533 21.333 0 4.267-8.533 8.533-17.067 8.533h-170.667c-8.533 0-17.067-4.267-21.333-8.533s-8.533-12.8-8.533-21.333v-597.333h-196.267c-12.8 0-21.333-4.267-25.6-17.067-4.267-8.533-4.267-21.333 4.267-29.867l315.733-341.333c4.267-4.267 12.8-8.533 21.333-8.533s12.8 4.267 21.333 8.533l311.467 341.333c4.267 8.533 4.267 21.333 0 29.867z" />
<glyph unicode="&#xe91b;" glyph-name="boxline-arrow-up" d="M844.8 610.133l-311.467 341.333c-4.267 4.267-12.8 8.533-17.067 8.533-8.533 0-17.067-4.267-21.333-8.533l-315.733-341.333c-8.533-8.533-8.533-21.333-4.267-29.867 4.267-12.8 12.8-17.067 25.6-17.067h200.533v-597.333c0-8.533 4.267-17.067 8.533-21.333 0-4.267 8.533-8.533 17.067-8.533h170.667c8.533 0 17.067 4.267 21.333 8.533s8.533 12.8 8.533 21.333v597.333h200.533c12.8 0 21.333 4.267 25.6 17.067 0 8.533 0 21.333-8.533 29.867z" />
<glyph unicode="&#xe91c;" glyph-name="briefcase" d="M640 281.6c0-8.533-4.267-17.067-12.8-25.6s-17.067-12.8-25.6-12.8h-179.2c-8.533 0-17.067 4.267-25.6 12.8s-12.8 17.067-12.8 25.6v89.6h-384v-273.067c0-25.6 8.533-46.933 25.6-64s38.4-25.6 64-25.6h840.533c25.6 0 46.933 8.533 64 25.6s25.6 38.4 25.6 64v273.067h-384v-89.6h4.267zM439.467 375.467h145.067v-72.533h-145.067zM998.4 712.533c-17.067 17.067-38.4 25.6-64 25.6h-200.533v93.867c0 17.067-4.267 29.867-17.067 38.4-8.533 8.533-25.6 17.067-38.4 17.067h-332.8c-17.067 0-29.867-4.267-38.4-17.067-8.533-8.533-12.8-21.333-12.8-38.4v-89.6h-204.8c-21.333 0-46.933-12.8-64-29.867s-25.6-38.4-25.6-64v-217.6h1024v217.6c0 25.6-8.533 46.933-25.6 64zM657.067 742.4h-290.133v72.533h294.4v-72.533z" />
<glyph unicode="&#xe91d;" glyph-name="calendar" d="M964.267 793.6c-12.8 12.8-29.867 21.333-51.2 21.333h-72.533v55.467c0 25.6-8.533 46.933-25.6 64s-38.4 25.6-64 25.6h-38.4c-25.6 0-46.933-8.533-64-25.6s-25.6-38.4-25.6-64v-55.467h-221.867v55.467c0 25.6-8.533 46.933-25.6 64s-38.4 25.6-64 25.6h-38.4c-25.6 0-46.933-8.533-64-25.6s-25.6-42.667-25.6-64v-55.467h-72.533c-21.333 0-38.4-8.533-51.2-21.333-17.067-17.067-21.333-34.133-21.333-51.2v-729.6c0-21.333 8.533-38.4 21.333-51.2 12.8-17.067 29.867-25.6 51.2-25.6h806.4c21.333 0 38.4 8.533 51.2 21.333s21.333 29.867 21.333 51.2v733.867c-4.267 17.067-8.533 34.133-25.6 51.2zM273.067 8.533h-162.133v166.4h166.4v-166.4zM273.067 209.067h-162.133v183.467h166.4v-183.467zM273.067 430.933h-162.133v162.133h166.4v-162.133zM260.267 691.2c-4.267 4.267-4.267 8.533-4.267 12.8v166.4c0 4.267 0 8.533 4.267 12.8s8.533 4.267 12.8 4.267h38.4c4.267 0 8.533 0 12.8-4.267s4.267-8.533 4.267-12.8v-166.4c0-4.267 0-8.533-4.267-12.8s-8.533-4.267-12.8-4.267h-38.4c-4.267 0-8.533 0-12.8 4.267zM494.933 8.533h-183.467v166.4h183.467v-166.4zM494.933 209.067h-183.467v183.467h183.467v-183.467zM494.933 430.933h-183.467v162.133h183.467v-162.133zM712.533 8.533h-183.467v166.4h183.467v-166.4zM712.533 209.067h-183.467v183.467h183.467v-183.467zM712.533 430.933h-183.467v162.133h183.467v-162.133zM699.733 691.2c-4.267 4.267-4.267 8.533-4.267 12.8v166.4c0 4.267 0 8.533 4.267 12.8s8.533 4.267 12.8 4.267h38.4c4.267 0 8.533 0 12.8-4.267s4.267-8.533 4.267-12.8v-166.4c0-4.267 0-8.533-4.267-12.8s-8.533-4.267-12.8-4.267h-38.4c-4.267 0-8.533 0-12.8 4.267zM913.067 8.533h-166.4v166.4h166.4v-166.4zM913.067 209.067h-166.4v183.467h166.4v-183.467zM913.067 430.933h-166.4v162.133h166.4v-162.133z" />
<glyph unicode="&#xe91e;" glyph-name="calendar-event" d="M392.533 298.667l-17.067-93.867c-4.267-12.8 4.267-25.6 12.8-34.133s25.6-8.533 38.4-4.267l85.333 42.667 85.333-42.667c4.267-4.267 8.533-4.267 17.067-4.267s12.8 4.267 21.333 8.533c8.533 8.533 17.067 21.333 12.8 34.133l-17.067 93.867 68.267 68.267c8.533 8.533 12.8 21.333 8.533 34.133s-12.8 21.333-29.867 21.333l-93.867 12.8-42.667 85.333c-4.267 12.8-17.067 21.333-29.867 21.333s-25.6-8.533-29.867-17.067l-42.667-85.333-98.133-12.8c-12.8 0-25.6-12.8-29.867-21.333-4.267-12.8 0-25.6 8.533-34.133l72.533-72.533zM921.6 849.067h-110.933v59.733c0 29.867-21.333 51.2-46.933 51.2h-8.533c-25.6 0-51.2-21.333-51.2-51.2v-59.733h-384v59.733c0 29.867-21.333 51.2-51.2 51.2h-8.533c-25.6 0-51.2-21.333-51.2-51.2v-59.733h-106.667c-55.467 0-102.4-42.667-102.4-98.133v-712.533c0-55.467 46.933-102.4 102.4-102.4h819.2c55.467 0 102.4 46.933 102.4 102.4v712.533c0 55.467-46.933 98.133-102.4 98.133zM908.8 51.2h-793.6v554.667h789.333v-554.667z" />
<glyph unicode="&#xe91f;" glyph-name="call" d="M1024 153.6c8.533-55.467-115.2-153.6-157.867-183.467-106.667-76.8-264.533 4.267-362.667 64-149.333 89.6-281.6 217.6-379.733 358.4-72.533 106.667-183.467 294.4-93.867 413.867 29.867 42.667 136.533 170.667 192 153.6 55.467-12.8 110.933-170.667 132.267-217.6 42.667-102.4-42.667-89.6-55.467-170.667-17.067-89.6 238.933-341.333 324.267-337.067 72.533 4.267 81.067 98.133 166.4 76.8 51.2-12.8 221.867-102.4 234.667-157.867 0-17.067-4.267 17.067 0 0z" />
<glyph unicode="&#xe920;" glyph-name="cart" d="M307.2 290.133h563.2c64 0 115.2 51.2 115.2 115.2v234.667l-733.867 128v102.4l-170.667 85.333c-17.067 8.533-34.133 0-38.4-12.8s0-29.867 17.067-38.4l136.533-59.733v-622.933c0-59.733 42.667-106.667 102.4-115.2-8.533-17.067-17.067-38.4-17.067-59.733 0-64 51.2-115.2 115.2-115.2s115.2 51.2 115.2 115.2c0 21.333-4.267 42.667-17.067 59.733h256c-8.533-17.067-17.067-38.4-17.067-59.733 0-64 51.2-115.2 115.2-115.2s115.2 51.2 115.2 115.2c0 64-51.2 115.2-115.2 115.2h-541.867c-34.133 0-59.733 25.6-59.733 59.733v76.8c17.067-4.267 38.4-8.533 59.733-8.533zM448 55.467c0-29.867-25.6-59.733-59.733-59.733s-55.467 29.867-55.467 59.733 25.6 59.733 59.733 59.733c34.133 0 55.467-29.867 55.467-59.733zM900.267 55.467c0-29.867-25.6-59.733-59.733-59.733-29.867 0-59.733 25.6-59.733 59.733 0 29.867 25.6 59.733 59.733 59.733s59.733-29.867 59.733-59.733zM870.4 345.6h-563.2c-34.133 0-59.733 25.6-59.733 59.733v302.933l678.4-93.867v-213.333c4.267-25.6-21.333-55.467-55.467-55.467z" />
<glyph unicode="&#xe921;" glyph-name="center-meeting" horiz-adv-x="1007" d="M936.569 606.155c22.72 21.495 36.86 51.857 36.86 85.522 0 64.973-52.671 117.643-117.643 117.643s-117.643-52.671-117.643-117.643c0-41.235 21.215-77.516 53.326-98.521l0.449-0.276c-22.231-15.288-36.621-40.584-36.621-69.241 0-0.119 0-0.237 0.001-0.356v0.018-117.643h-68.663v84.227c-0.030 59.947-44.893 109.407-102.876 116.669l-0.577 0.059c22.578 21.478 36.62 51.747 36.62 85.295 0 64.973-52.671 117.643-117.643 117.643s-117.643-52.671-117.643-117.643c0-33.549 14.043-63.817 36.571-85.249l0.049-0.046c-57.279-8.567-100.707-57.421-100.707-116.418 0-0.109 0-0.218 0-0.327v0.017-83.769h-68.663v117.186c0 0.1 0.001 0.219 0.001 0.338 0 28.657-14.39 53.954-36.338 69.057l-0.283 0.184c32.56 21.281 53.776 57.562 53.776 98.797 0 64.973-52.671 117.643-117.643 117.643s-117.643-52.671-117.643-117.643c0-33.665 14.14-64.027 36.805-85.471l0.055-0.051c-40.204-6.631-70.495-41.133-70.495-82.711 0-0.050 0-0.101 0-0.151v0.008-251.766c0.055-40.476 28.652-74.257 66.74-82.299l0.55-0.097v-253.139h33.416v251.766h151.059v-234.829c0-9.354 7.583-16.937 16.937-16.937v0h100.706c9.354 0 16.937 7.583 16.937 16.937v0 268.245h100.706v-251.766h-67.29v-33.416h167.996v33.416h-67.29v251.766h100.706v-268.703c0-9.354 7.583-16.937 16.937-16.937v0h100.706c9.354 0 16.937 7.583 16.937 16.937v0 235.287h151.059v-251.766h33.416v253.597c38.293 8.292 66.6 41.776 66.832 81.913v251.791c0 0.042 0 0.093 0 0.143 0 41.577-30.29 76.080-70.008 82.644l-0.487 0.066zM772.234 691.297c0 46.265 37.505 83.769 83.769 83.769s83.769-37.505 83.769-83.769c0-46.265-37.505-83.769-83.769-83.769v0c-46.16 0.258-83.511 37.609-83.769 83.745v0.025zM419.762 691.297c0 46.265 37.505 83.769 83.769 83.769s83.769-37.505 83.769-83.769c0-46.265-37.505-83.769-83.769-83.769v0c-46.16 0.258-83.511 37.609-83.769 83.745v0.025zM529.624 573.654l-26.092-69.579-26.092 69.579zM352.472 489.885c0.258 46.16 37.609 83.511 83.745 83.769h5.060l45.776-123.594c2.523-6.383 8.64-10.817 15.793-10.817s13.269 4.433 15.753 10.702l0.040 0.115 45.776 123.594h5.035c0.273 0.003 0.594 0.005 0.917 0.005 46.358 0 83.969-37.452 84.226-83.75v-83.794h-67.29c-9.354 0-16.937-7.583-16.937-16.937v0-67.29h-134.122v67.29c0 9.354-7.583 16.937-16.937 16.937h-66.832zM67.29 691.297c0 46.265 37.505 83.769 83.769 83.769s83.769-37.505 83.769-83.769c0-46.265-37.505-83.769-83.769-83.769v0c-46.16 0.258-83.511 37.609-83.769 83.745v0.025zM352.472-30.584h-67.29v235.287c0 9.354-7.583 16.937-16.937 16.937v0h-183.102c-27.809 0-50.353 22.544-50.353 50.353v0 251.766c0 27.809 22.544 50.353 50.353 50.353v0h82.854c27.809 0 50.353-22.544 50.353-50.353v0-134.58c0-9.354 7.583-16.937 16.937-16.937v0h167.539v-50.353h-234.829v151.059h-33.874v-167.996c0-9.354 7.583-16.937 16.937-16.937v0h151.059c27.809 0 50.353-22.544 50.353-50.353v0zM623.006 256.429h-238.949c-2.697 12.772-7.963 24.010-15.257 33.624l0.151-0.208h268.703c-6.98-9.428-12.096-20.673-14.558-32.88l-0.090-0.537zM973.647 273.366c0-27.809-22.544-50.353-50.353-50.353v0h-183.102c-9.354 0-16.937-7.583-16.937-16.937v0-234.829h-68.663v266.872c0 27.809 22.544 50.353 50.353 50.353v0h151.059c9.354 0 16.937 7.583 16.937 16.937v0 167.539h-33.416v-151.059h-235.287v50.353h167.996c9.354 0 16.937 7.583 16.937 16.937v0 134.122c0 27.809 22.544 50.353 50.353 50.353v0h83.769c27.809 0 50.353-22.544 50.353-50.353v0zM486.595 406.115h33.416v-33.416h-33.416zM419.762 960h-236.66c-8.533-0.955-15.106-8.129-15.106-16.838 0-0.035 0-0.070 0-0.105v0.005-83.769c0-0.029 0-0.064 0-0.099 0-8.709 6.573-15.883 15.029-16.831l0.077-0.007h68.663v-33.416c0.191-9.206 7.699-16.597 16.934-16.597 3.793 0 7.295 1.247 10.119 3.354l-0.045-0.032 62.713 45.776h78.276c9.354 0 16.937 7.583 16.937 16.937v0 84.685c0 9.354-7.583 16.937-16.937 16.937v0zM402.825 875.773h-67.29c-0.046 0-0.101 0.001-0.156 0.001-3.724 0-7.167-1.202-9.963-3.239l0.048 0.034-40.283-30.212v16.937c0 9.354-7.583 16.937-16.937 16.937v0h-66.832v49.895h201.413zM587.301 909.647h33.416v-33.416h-33.416zM654.591 909.647h33.416v-33.416h-33.416zM721.881 909.647h33.416v-33.416h-33.416z" />
<glyph unicode="&#xe922;" glyph-name="chat" d="M605.867 302.933c64 25.6 110.933 59.733 145.067 106.667s55.467 93.867 55.467 145.067c0 51.2-17.067 102.4-55.467 145.067-34.133 46.933-85.333 81.067-145.067 106.667-64 25.6-128 38.4-200.533 38.4s-140.8-12.8-200.533-38.4c-68.267-21.333-115.2-55.467-149.333-102.4-38.4-42.667-55.467-93.867-55.467-145.067 0-46.933 12.8-89.6 42.667-128 25.6-38.4 64-72.533 110.933-102.4l-12.8-25.6c-4.267-8.533-8.533-17.067-12.8-21.333-4.267-8.533-8.533-12.8-12.8-17.067s-8.533-8.533-12.8-17.067c-12.8-8.533-17.067-12.8-17.067-12.8l-12.8-12.8v-21.333c0-4.267 4.267-8.533 8.533-12.8 4.267 4.267 8.533 4.267 12.8 4.267 17.067 4.267 34.133 4.267 51.2 8.533 59.733 17.067 110.933 38.4 157.867 72.533 34.133-4.267 68.267-8.533 102.4-8.533 68.267 0 136.533 12.8 200.533 38.4zM981.333 281.6c25.6 38.4 42.667 81.067 42.667 128s-12.8 89.6-42.667 132.267-68.267 72.533-115.2 102.4c8.533-29.867 12.8-55.467 12.8-85.333 0-51.2-12.8-98.133-38.4-145.067s-64-85.333-110.933-119.467c-42.667-29.867-93.867-55.467-149.333-72.533s-115.2-25.6-174.933-25.6c-12.8 0-29.867 0-51.2 4.267 76.8-51.2 166.4-76.8 268.8-76.8 34.133 0 68.267 4.267 102.4 8.533 46.933-34.133 98.133-59.733 157.867-72.533 12.8-4.267 29.867-8.533 51.2-8.533 4.267 0 8.533 0 12.8 4.267s4.267 8.533 8.533 12.8v21.333s0 4.267-4.267 4.267l-4.267 4.267s0 4.267-4.267 4.267c0 4.267-4.267 8.533-12.8 12.8-8.533 8.533-12.8 12.8-12.8 17.067-4.267 4.267-8.533 8.533-12.8 17.067s-8.533 12.8-12.8 21.333l-12.8 25.6c38.4 12.8 76.8 46.933 102.4 85.333z" />
<glyph unicode="&#xe923;" glyph-name="checkmark" d="M1006.933 742.4l-34.133 34.133c-8.533 8.533-25.6 17.067-38.4 17.067-17.067 0-29.867-4.267-38.4-17.067l-469.333-469.333-298.667 290.133c-8.533 12.8-25.6 17.067-38.4 17.067-17.067 0-29.867-4.267-38.4-17.067l-34.133-29.867c-12.8-12.8-17.067-25.6-17.067-42.667s4.267-29.867 17.067-38.4l366.933-366.933c8.533-8.533 25.6-17.067 38.4-17.067 17.067 0 29.867 4.267 38.4 17.067l34.133 34.133 512 507.733c21.333 25.6 21.333 59.733 0 81.067z" />
<glyph unicode="&#xe924;" glyph-name="clock" d="M512 960c-281.6 0-512-230.4-512-512s230.4-512 512-512 512 230.4 512 512-230.4 512-512 512zM733.867 349.867h-226.133c-21.333 0-34.133 17.067-34.133 34.133v362.667c0 21.333 17.067 34.133 34.133 34.133 21.333 0 34.133-17.067 34.133-34.133v-324.267h187.733c21.333 0 34.133-17.067 34.133-34.133 4.267-21.333-12.8-38.4-29.867-38.4z" />
<glyph unicode="&#xe925;" glyph-name="close" d="M631.467 448l366.933 366.933c34.133 34.133 34.133 85.333 0 119.467s-85.333 34.133-119.467 0l-366.933-366.933-366.933 366.933c-34.133 34.133-85.333 34.133-119.467 0s-34.133-85.333 0-119.467l366.933-366.933-366.933-366.933c-34.133-34.133-34.133-85.333 0-119.467 17.067-17.067 38.4-25.6 59.733-25.6s42.667 8.533 59.733 25.6l366.933 366.933 366.933-366.933c17.067-17.067 38.4-25.6 59.733-25.6s42.667 8.533 59.733 25.6c34.133 34.133 34.133 85.333 0 119.467l-366.933 366.933z" />
<glyph unicode="&#xe926;" glyph-name="credit-card" d="M917.333 789.335h-810.668c-58.794 0-106.666-47.872-106.666-106.668v-469.333c0-58.795 47.872-106.667 106.666-106.667h810.668c58.795 0 106.667 47.872 106.667 106.667v469.333c0 58.796-47.872 106.668-106.667 106.668zM981.333 213.333c0-35.285-28.715-64-64-64h-810.668c-35.286 0-64 28.715-64 64v469.333c0 35.286 28.714 64 64 64h810.668c35.285 0 64-28.714 64-64v-469.333zM1002.667 661.335h-981.333c-11.776 0-21.334-9.558-21.334-21.334v-128c0-11.776 9.558-21.333 21.334-21.333h981.333c11.776 0 21.333 9.557 21.333 21.333v128c0 11.776-9.557 21.334-21.333 21.334zM981.333 533.335h-938.667v85.334h938.667v-85.334zM405.334 362.667h-256c-11.776 0-21.334-9.557-21.334-21.333s9.558-21.333 21.334-21.333h256c11.776 0 21.332 9.557 21.332 21.333s-9.556 21.333-21.332 21.333zM405.334 277.333h-256c-11.776 0-21.334-9.557-21.334-21.333s9.558-21.333 21.334-21.333h256c11.776 0 21.332 9.557 21.332 21.333s-9.556 21.333-21.332 21.333zM832 405.333h-42.667c-35.285 0-64-28.715-64-64v-42.667c0-35.285 28.715-64 64-64h42.667c35.285 0 64 28.715 64 64v42.667c0 35.285-28.715 64-64 64zM853.333 298.667c0-11.776-9.557-21.333-21.333-21.333h-42.667c-11.776 0-21.333 9.557-21.333 21.333v42.667c0 11.776 9.557 21.333 21.333 21.333h42.667c11.776 0 21.333-9.557 21.333-21.333v-42.667z" />
<glyph unicode="&#xe927;" glyph-name="customer-rating" d="M601.6 388.267c0-49.485-40.115-89.6-89.6-89.6s-89.6 40.115-89.6 89.6c0 49.485 40.115 89.6 89.6 89.6s89.6-40.115 89.6-89.6zM512 238.933c-98.133 0-179.2-81.067-179.2-179.2v-123.733h358.4v123.733c0 98.133-81.067 179.2-179.2 179.2zM273.067 328.533c0-49.485-40.115-89.6-89.6-89.6s-89.6 40.115-89.6 89.6c0 49.485 40.115 89.6 89.6 89.6s89.6-40.115 89.6-89.6zM930.133 328.533c0-49.485-40.115-89.6-89.6-89.6s-89.6 40.115-89.6 89.6c0 49.485 40.115 89.6 89.6 89.6s89.6-40.115 89.6-89.6zM153.6 960l-46.933-106.667-106.667-17.067 76.8-72.533-17.067-106.667 93.867 51.2 89.6-51.2-17.067 106.667 76.8 72.533-102.4 17.067-46.933 106.667zM418.133 657.067l93.867 51.2 93.867-51.2-17.067 106.667 72.533 72.533-102.4 17.067-46.933 106.667-46.933-106.667-102.4-17.067 72.533-72.533-17.067-106.667zM780.8 657.067l89.6 51.2 93.867-51.2-17.067 106.667 76.8 72.533-106.667 17.067-46.933 106.667-42.667-106.667-106.667-17.067 76.8-72.533-17.067-106.667zM840.533 179.2c-38.4 0-76.8-12.8-106.667-34.133 8.533-25.6 17.067-55.467 17.067-85.333v-123.733h273.067v64c0 98.133-81.067 179.2-183.467 179.2zM0 0v-64h273.067v123.733c0 29.867 4.267 59.733 17.067 85.333-29.867 21.333-68.267 34.133-106.667 34.133-102.4 0-183.467-81.067-183.467-179.2z" />
<glyph unicode="&#xe928;" glyph-name="delete" d="M759.467 657.067h-490.667c-51.2 0-93.867-42.667-93.867-93.867l51.2-533.333c0-51.2 42.667-93.867 93.867-93.867h392.533c51.2 0 93.867 42.667 93.867 93.867l42.667 533.333c0 51.2-38.4 93.867-89.6 93.867zM388.267 98.133c0-25.6-21.333-46.933-46.933-46.933s-46.933 21.333-46.933 46.933v418.133c0 25.6 21.333 46.933 46.933 46.933s46.933-21.333 46.933-46.933v-418.133zM554.667 98.133c0-25.6-21.333-46.933-46.933-46.933s-46.933 21.333-46.933 46.933v418.133c0 25.6 21.333 46.933 46.933 46.933s46.933-21.333 46.933-46.933v-418.133zM716.8 98.133c0-25.6-21.333-46.933-46.933-46.933s-46.933 21.333-46.933 46.933v418.133c0 25.6 21.333 46.933 46.933 46.933s46.933-21.333 46.933-46.933v-418.133zM247.467 699.733l563.2 145.067c29.867 8.533 51.2 38.4 42.667 72.533-8.533 29.867-38.4 51.2-72.533 42.667l-170.667-42.667c-17.067 25.6-46.933 34.133-76.8 29.867l-68.267-17.067c-29.867-12.8-51.2-38.4-51.2-68.267l-196.267-46.933c-29.867-8.533-51.2-38.4-42.667-72.533 8.533-29.867 38.4-46.933 72.533-42.667z" />
<glyph unicode="&#xe929;" glyph-name="diamond" d="M977.067 460.8l-123.733 238.933c-4.267 8.533-12.8 17.067-29.867 17.067h-622.933c-12.8 0-21.333-4.267-29.867-17.067l-123.733-238.933c-8.533-12.8-4.267-21.333 4.267-34.133l439.467-482.133c4.267-8.533 12.8-8.533 25.6-8.533 8.533 0 17.067 4.267 25.6 8.533l439.467 482.133c0 12.8 4.267 21.333-4.267 34.133zM772.267 657.067l-81.067-153.6-119.467 153.6h200.533zM635.733 477.867h-247.467l123.733 162.133 123.733-162.133zM448 657.067l-119.467-153.6-76.8 153.6h196.267zM200.533 622.933l72.533-140.8h-149.333l76.8 140.8zM140.8 418.133h162.133l153.6-345.6-315.733 345.6zM512 102.4l-140.8 315.733h281.6l-140.8-315.733zM567.467 72.533l153.6 345.6h162.133l-315.733-345.6zM750.933 477.867l72.533 140.8 72.533-140.8h-145.067zM512 960c-17.067 0-29.867-12.8-29.867-29.867v-64c0-17.067 12.8-29.867 29.867-29.867s29.867 12.8 29.867 29.867v64c0 17.067-12.8 29.867-29.867 29.867zM379.733 827.733l-42.667 42.667c-12.8 12.8-34.133 12.8-42.667 0s-12.8-29.867 0-42.667l42.667-42.667c12.8-12.8 34.133-12.8 42.667 0 12.8 12.8 12.8 29.867 0 42.667zM733.867 870.4c-12.8 12.8-34.133 12.8-42.667 0l-42.667-42.667c-12.8-12.8-12.8-29.867 0-42.667s34.133-12.8 42.667 0l42.667 42.667c12.8 12.8 12.8 29.867 0 42.667z" />
<glyph unicode="&#xe92a;" glyph-name="document-edit" d="M780.8 785.067c0 25.6-8.533 46.933-25.6 64l-85.333 85.333c-17.067 17.067-42.667 25.6-64 25.6h-8.533v-179.2h179.2l4.267 4.267zM699.733 187.733l-93.867-29.867h-12.8c-25.6 0-46.933 12.8-59.733 29.867-12.8 21.333-17.067 42.667-8.533 68.267l29.867 85.333c4.267 17.067 17.067 34.133 29.867 46.933l204.8 200.533v128h-209.067c-17.067 0-29.867 12.8-29.867 29.867v213.333h-460.8c-51.2 0-89.6-38.4-89.6-89.6v-844.8c0-51.2 38.4-89.6 89.6-89.6h597.333c51.2 0 89.6 38.4 89.6 89.6v221.867l-34.133-34.133c-8.533-8.533-25.6-17.067-42.667-25.6zM149.333 661.333h418.133c17.067 0 29.867-12.8 29.867-29.867s-12.8-29.867-29.867-29.867h-418.133c-17.067 0-29.867 12.8-29.867 29.867s12.8 29.867 29.867 29.867zM149.333 541.867h298.667c17.067 0 29.867-12.8 29.867-29.867s-12.8-29.867-29.867-29.867h-298.667c-17.067 0-29.867 12.8-29.867 29.867 0 12.8 12.8 29.867 29.867 29.867zM149.333 418.133h298.667c17.067 0 29.867-12.8 29.867-29.867s-12.8-29.867-29.867-29.867h-298.667c-17.067 0-29.867 12.8-29.867 29.867s12.8 29.867 29.867 29.867zM119.467 268.8c0 17.067 12.8 29.867 29.867 29.867h298.667c17.067 0 29.867-12.8 29.867-29.867s-12.8-29.867-29.867-29.867h-298.667c-17.067 0-29.867 12.8-29.867 29.867zM567.467 59.733h-179.2c-17.067 0-29.867 12.8-29.867 29.867s12.8 29.867 29.867 29.867h179.2c17.067 0 29.867-12.8 29.867-29.867s-12.8-29.867-29.867-29.867zM593.067 217.6l76.8 25.6-72.533 72.533-21.333-81.067c-4.267-8.533 8.533-21.333 17.067-17.067zM635.733 362.667l85.333-85.333 196.267 196.267-85.333 85.333-196.267-196.267zM1006.933 648.533c-8.533 8.533-25.6 17.067-42.667 17.067s-29.867-4.267-42.667-17.067l-42.667-42.667 85.333-85.333 42.667 42.667c21.333 21.333 21.333 59.733 0 85.333z" />
<glyph unicode="&#xe92b;" glyph-name="download" d="M1006.933 273.067c-12.8 12.8-25.6 17.067-42.667 17.067h-285.867l-85.333-85.333c-25.6-21.333-51.2-34.133-85.333-34.133-29.867 0-59.733 12.8-85.333 34.133l-81.067 85.333h-281.6c-17.067 0-29.867-4.267-42.667-17.067s-17.067-25.6-17.067-42.667v-196.267c0-17.067 4.267-29.867 17.067-42.667s25.6-17.067 42.667-17.067h904.533c17.067 0 29.867 4.267 42.667 17.067s17.067 25.6 17.067 42.667v196.267c0 17.067-4.267 29.867-17.067 42.667zM776.533 64c-8.533-8.533-17.067-12.8-25.6-12.8-12.8 0-21.333 4.267-25.6 12.8-8.533 8.533-12.8 17.067-12.8 25.6s4.267 21.333 12.8 25.6c8.533 8.533 17.067 12.8 25.6 12.8 12.8 0 21.333-4.267 25.6-12.8 8.533-8.533 12.8-17.067 12.8-25.6s-4.267-17.067-12.8-25.6zM934.4 64c-8.533-8.533-17.067-12.8-25.6-12.8s-21.333 4.267-25.6 12.8c-8.533 8.533-12.8 17.067-12.8 25.6s4.267 21.333 12.8 25.6c8.533 8.533 17.067 12.8 25.6 12.8s21.333-4.267 25.6-12.8c8.533-8.533 12.8-17.067 12.8-25.6s-4.267-17.067-12.8-25.6zM486.4 264.533c8.533-8.533 17.067-12.8 25.6-12.8 12.8 0 21.333 4.267 25.6 12.8l277.333 277.333c12.8 12.8 17.067 25.6 8.533 42.667s-17.067 25.6-38.4 25.6h-157.867v273.067c0 8.533-4.267 21.333-12.8 25.6-8.533 8.533-17.067 12.8-25.6 12.8h-157.867c-8.533 0-17.067-4.267-25.6-12.8s-12.8-17.067-12.8-25.6v-277.333h-157.867c-17.067 0-29.867-8.533-38.4-25.6s-4.267-29.867 8.533-42.667l281.6-273.067z" />
<glyph unicode="&#xe92c;" glyph-name="dribbble" d="M490.667 567.467c-55.467 102.4-119.467 187.733-132.267 204.8-98.133-46.933-170.667-136.533-196.267-247.467h4.267c34.133 0 170.667 0 324.267 42.667zM571.733 388.267c-196.267-68.267-268.8-200.533-277.333-221.867 59.733-46.933 136.533-72.533 217.6-72.533 46.933 0 93.867 8.533 136.533 25.6-4.267 34.133-25.6 140.8-76.8 268.8 4.267 0 4.267 0 0 0zM746.667 712.533c-64 55.467-145.067 89.6-234.667 89.6-25.6 0-55.467-4.267-81.067-8.533 12.8-21.333 76.8-102.4 132.267-204.8 119.467 46.933 174.933 110.933 183.467 123.733zM537.6 448c4.267 0 8.533 4.267 12.8 4.267-8.533 17.067-17.067 38.4-25.6 55.467-157.867-46.933-311.467-51.2-354.133-51.2h-8.533v-8.533c0-89.6 34.133-170.667 89.6-234.667 8.533 25.6 106.667 174.933 285.867 234.667zM968.533 960h-913.067c-29.867 0-55.467-25.6-55.467-55.467v-913.067c0-29.867 25.6-55.467 55.467-55.467h913.067c29.867 0 55.467 25.6 55.467 55.467v913.067c0 29.867-25.6 55.467-55.467 55.467zM512 25.6c-230.4 0-422.4 187.733-422.4 422.4s192 422.4 422.4 422.4 422.4-187.733 422.4-422.4-192-422.4-422.4-422.4zM644.267 405.333c42.667-123.733 64-221.867 68.267-247.467 76.8 55.467 132.267 136.533 149.333 234.667-12.8 4.267-72.533 21.333-145.067 21.333-21.333-4.267-46.933-4.267-72.533-8.533zM593.067 533.333c8.533-17.067 17.067-34.133 21.333-51.2 4.267-4.267 4.267-12.8 8.533-17.067 25.6 4.267 55.467 4.267 81.067 4.267 81.067 0 149.333-12.8 166.4-17.067 0 81.067-29.867 157.867-76.8 217.6-17.067-17.067-76.8-85.333-200.533-136.533z" />
<glyph unicode="&#xe92d;" glyph-name="edit" d="M635.733 789.333l209.067-209.067-529.067-524.8-209.067 209.067 529.067 524.8zM1002.667 840.533l-93.867 93.867c-34.133 34.133-93.867 34.133-132.267 0l-89.6-89.6 209.067-209.067 102.4 102.4c34.133 29.867 34.133 72.533 4.267 102.4zM0-29.867c-4.267-17.067 12.8-34.133 29.867-29.867l230.4 55.467-209.067 209.067-51.2-234.667z" />
<glyph unicode="&#xe92e;" glyph-name="equalizer" d="M541.867 443.733v516.267h-64v-516.267c-72.533-12.8-128-81.067-128-157.867s55.467-140.8 128-157.867v-192h64v196.267c72.533 12.8 128 81.067 128 157.867s-51.2 140.8-128 153.6zM512 192c-51.2 0-98.133 42.667-98.133 98.133s42.667 98.133 98.133 98.133 98.133-42.667 98.133-98.133c-4.267-55.467-46.933-98.133-98.133-98.133zM192 763.733v196.267h-64v-196.267c-72.533-12.8-128-76.8-128-157.867s55.467-140.8 128-157.867v-512h64v516.267c72.533 12.8 128 81.067 128 157.867s-55.467 140.8-128 153.6zM162.133 512c-51.2 0-98.133 42.667-98.133 98.133s42.667 93.867 98.133 93.867 93.867-42.667 93.867-98.133-42.667-93.867-93.867-93.867zM1024 605.867c0 76.8-55.467 140.8-128 157.867v196.267h-64v-196.267c-72.533-12.8-128-81.067-128-157.867s55.467-140.8 128-157.867v-512h64v516.267c72.533 12.8 128 76.8 128 153.6zM861.867 512c-51.2 0-98.133 42.667-98.133 98.133s46.933 93.867 98.133 93.867 98.133-42.667 98.133-98.133-42.667-93.867-98.133-93.867z" />
<glyph unicode="&#xe92f;" glyph-name="error" d="M512 960c-281.6 0-512-230.4-512-512s230.4-512 512-512 512 230.4 512 512-230.4 512-512 512zM563.2 192h-102.4v102.4h102.4v-102.4zM563.2 396.8h-102.4v307.2h102.4v-307.2z" />
<glyph unicode="&#xe930;" glyph-name="excel" d="M994.133 797.867h-418.133v98.133c0 8.533-4.267 17.067-12.8 25.6-8.533 4.267-17.067 8.533-25.6 8.533l-512-98.133c-12.8-4.267-25.6-17.067-25.6-34.133v-704c0-17.067 12.8-29.867 25.6-29.867l512-98.133h4.267c8.533 0 12.8 4.267 21.333 8.533s12.8 17.067 12.8 25.6v98.133h418.133c17.067 0 34.133 12.8 34.133 34.133v640c-4.267 12.8-17.067 25.6-34.133 25.6zM439.467 341.333c12.8-12.8 8.533-34.133-4.267-46.933-4.267-4.267-12.8-8.533-21.333-8.533s-17.067 4.267-25.6 12.8l-89.6 106.667-81.067-106.667c-4.267-8.533-17.067-12.8-25.6-12.8s-12.8 4.267-21.333 8.533c-12.8 12.8-17.067 29.867-4.267 46.933l89.6 110.933-89.6 102.4c-8.533 12.8-8.533 34.133 4.267 46.933s34.133 8.533 46.933-4.267l81.067-89.6 93.867 123.733c12.8 12.8 29.867 17.067 46.933 4.267 12.8-12.8 17.067-29.867 4.267-46.933l-102.4-132.267 98.133-115.2zM960 157.867h-384v64h98.133c17.067 0 34.133 12.8 34.133 34.133 0 17.067-12.8 34.133-34.133 34.133h-98.133v64h98.133c17.067 0 34.133 12.8 34.133 34.133 0 17.067-12.8 34.133-34.133 34.133h-98.133v64h98.133c17.067 0 34.133 12.8 34.133 34.133 0 17.067-12.8 34.133-34.133 34.133h-98.133v51.2h98.133c17.067 0 34.133 12.8 34.133 29.867s-12.8 34.133-34.133 34.133h-98.133v64h384v-576z" />
<glyph unicode="&#xe931;" glyph-name="facebook" d="M880 848h-736c-17.7 0-32-14.3-32-32v-736c0-17.698 14.3-32 32-32h736c17.698 0 32 14.302 32 32v736c0 17.7-14.302 32-32 32zM787.601 614.5h-63.902c-50.099 0-59.797-23.8-59.797-58.8v-77.1h119.599l-15.599-120.7h-104v-309.901h-124.702v309.798h-104.299v120.802h104.299v89c0 103.3 63.1 159.6 155.298 159.6 44.203 0 82.103-3.3 93.201-4.8v-107.9h-0.098z" />
<glyph unicode="&#xe932;" glyph-name="filter" d="M1024 823.467c0 89.6-256 136.533-512 136.533s-512-46.933-512-136.533c0-21.333 12.8-38.4 38.4-55.467l354.133-465.067v-366.933h29.867l213.333 204.8v157.867l354.133 465.067c21.333 21.333 34.133 38.4 34.133 59.733zM512 921.6c285.867 0 469.333-59.733 469.333-98.133s-183.467-98.133-469.333-98.133-469.333 55.467-469.333 98.133 183.467 98.133 469.333 98.133z" />
<glyph unicode="&#xe933;" glyph-name="filter-2" d="M388.267 477.867c12.8-12.8 17.067-25.6 17.067-42.667v-465.067c0-29.867 34.133-42.667 55.467-21.333l128 149.333c17.067 21.333 25.6 29.867 25.6 51.2v285.867c0 17.067 4.267 29.867 17.067 42.667l371.2 405.333c34.133 25.6 8.533 76.8-29.867 76.8h-921.6c-42.667 0-64-51.2-34.133-81.067l371.2-401.067z" />
<glyph unicode="&#xe934;" glyph-name="folder-closed" d="M0 93.867c0-34.133 29.867-64 64-64h896c34.133 0 64 29.867 64 64v448h-1024v-448zM960 733.867h-486.4l-106.667 110.933c-12.8 12.8-29.867 17.067-46.933 17.067h-256c-34.133 0-64-25.6-64-64v-192h1024v64c0 38.4-29.867 64-64 64z" />
<glyph unicode="&#xe935;" glyph-name="folder-opened" d="M132.267 563.2c8.533 25.6 34.133 42.667 59.733 42.667h704v64c0 34.133-29.867 64-64 64h-422.4l-106.667 110.933c-12.8 12.8-29.867 17.067-46.933 17.067h-192c-34.133 0-64-25.6-64-64v-631.467l132.267 396.8zM1024 477.867c0 34.133-29.867 64-64 64h-704c-29.867 0-51.2-17.067-59.733-42.667l-128-384c-4.267-4.267-4.267-12.8-4.267-21.333 0-34.133 29.867-64 64-64h704c29.867 0 51.2 17.067 59.733 42.667l128 384c4.267 8.533 4.267 17.067 4.267 21.333z" />
<glyph unicode="&#xe936;" glyph-name="globe" d="M529.067 174.933v-238.933c76.8 12.8 145.067 93.867 192 213.333-64 17.067-128 25.6-192 25.6zM776.533 136.533c-4.267 0-12.8 4.267-17.067 4.267h-4.267v-8.533c0-4.267 0-4.267-4.267-8.533-12.8-42.667-34.133-81.067-64-119.467-17.067-21.333-29.867-38.4-51.2-55.467 4.267 0 12.8 4.267 17.067 4.267 34.133 8.533 64 21.333 98.133 38.4 29.867 17.067 59.733 34.133 85.333 59.733 17.067 12.8 29.867 25.6 42.667 38.4-21.333 12.8-46.933 21.333-68.267 29.867-8.533 8.533-21.333 12.8-34.133 17.067zM768 179.2c46.933-12.8 93.867-29.867 140.8-55.467 72.533 85.333 115.2 196.267 119.467 307.2h-217.6c-8.533-85.333-21.333-170.667-42.667-251.733zM733.867 712.533c-68.267-17.067-132.267-21.333-200.533-25.6v-221.867h234.667c0 85.333-12.8 166.4-34.133 247.467zM529.067 960v-234.667c64 0 128 8.533 192 21.333-42.667 119.467-110.933 200.533-192 213.333zM768 430.933h-238.933v-221.867c68.267 0 136.533-8.533 200.533-25.6 25.6 81.067 38.4 166.4 38.4 247.467zM806.4 469.333h217.6c-4.267 110.933-46.933 221.867-119.467 307.2-42.667-25.6-89.6-42.667-140.8-55.467 25.6-81.067 38.4-166.4 42.667-251.733zM721.067 840.533c12.8-21.333 21.333-38.4 29.867-59.733 0-4.267 4.267-8.533 4.267-17.067v-8.533h4.267c4.267 0 4.267 0 8.533 4.267 12.8 4.267 25.6 8.533 34.133 12.8 25.6 8.533 51.2 21.333 76.8 34.133-25.6 25.6-55.467 51.2-85.333 72.533s-64 38.4-98.133 51.2c-17.067 8.533-38.4 12.8-59.733 17.067 34.133-34.133 64-68.267 85.333-106.667zM256 721.067c-46.933 12.8-93.867 29.867-136.533 55.467-72.533-85.333-115.2-196.267-119.467-307.2h217.6c4.267 85.333 17.067 170.667 38.4 251.733zM494.933-64v234.667c-64 0-128-8.533-192-21.333 42.667-119.467 110.933-200.533 192-213.333zM290.133 187.733c68.267 17.067 132.267 21.333 200.533 25.6v221.867h-234.667c0-85.333 12.8-170.667 34.133-247.467zM302.933 746.667c64-12.8 128-21.333 192-21.333v234.667c-81.067-12.8-149.333-93.867-192-213.333zM256 469.333h238.933v217.6c-68.267 0-136.533 8.533-200.533 25.6-25.6-81.067-38.4-162.133-38.4-243.2zM247.467 759.467c4.267 0 12.8-4.267 17.067-4.267h4.267v4.267c0 4.267 0 4.267 4.267 8.533 12.8 42.667 34.133 81.067 64 119.467 12.8 21.333 29.867 38.4 46.933 59.733-34.133-12.8-68.267-25.6-102.4-42.667-34.133-12.8-64-34.133-93.867-59.733-17.067-12.8-29.867-25.6-46.933-42.667 25.6-8.533 46.933-21.333 72.533-29.867 8.533-4.267 21.333-8.533 34.133-12.8zM302.933 59.733c-12.8 21.333-21.333 38.4-29.867 59.733 0 4.267-4.267 8.533-4.267 17.067v8.533h-4.267c-4.267 0-4.267 0-8.533-4.267-12.8-4.267-25.6-8.533-34.133-12.8-25.6-8.533-51.2-21.333-76.8-34.133l8.533-8.533c25.6-25.6 51.2-46.933 81.067-68.267 29.867-17.067 59.733-34.133 93.867-46.933 17.067-8.533 38.4-12.8 55.467-17.067-29.867 29.867-59.733 68.267-81.067 106.667zM217.6 430.933h-217.6c4.267-110.933 46.933-221.867 119.467-307.2 42.667 25.6 89.6 42.667 140.8 55.467-25.6 81.067-38.4 166.4-42.667 251.733z" />
<glyph unicode="&#xe937;" glyph-name="graph" d="M1019.733 657.067l-213.333 290.133c-8.533 8.533-17.067 12.8-25.6 12.8s-17.067-4.267-25.6-12.8l-213.333-290.133c-8.533-8.533-8.533-21.333-4.267-29.867s17.067-17.067 29.867-17.067h76.8v-145.067c-17.067 8.533-34.133 12.8-51.2 12.8h-55.467c-59.733 0-110.933-51.2-110.933-110.933v-64c-17.067 8.533-34.133 12.8-51.2 12.8h-51.2c-59.733 0-110.933-51.2-110.933-110.933v-64c-17.067 8.533-34.133 12.8-51.2 12.8h-51.2c-59.733 4.267-110.933-46.933-110.933-106.667v-81.067c0-17.067 12.8-29.867 29.867-29.867h857.6c17.067 0 29.867 12.8 29.867 29.867v644.267h76.8c12.8 0 21.333 4.267 25.6 17.067 4.267 8.533 4.267 21.333 0 29.867zM59.733 46.933c0 29.867 21.333 51.2 51.2 51.2h55.467c29.867 0 51.2-21.333 51.2-51.2v-51.2h-157.867v51.2zM273.067 46.933v162.133c0 29.867 21.333 51.2 51.2 51.2h55.467c29.867 0 51.2-21.333 51.2-51.2v-209.067h-157.867v46.933zM486.4 209.067v162.133c0 29.867 21.333 51.2 51.2 51.2h55.467c29.867 0 51.2-21.333 51.2-51.2v-371.2h-153.6v209.067zM887.467 669.867c-17.067 0-29.867-12.8-29.867-29.867v-644.267h-153.6v644.267c0 17.067-12.8 29.867-29.867 29.867h-46.933l153.6 209.067 153.6-209.067h-46.933z" />
<glyph unicode="&#xe938;" glyph-name="hand-pointer" d="M964.267 435.2v12.8c0 46.933-38.4 81.067-81.067 81.067-46.933 0-81.067-38.4-81.067-81.067v85.333c0 46.933-38.4 81.067-81.067 81.067s-81.067-34.133-81.067-81.067v85.333c0 42.667-42.667 81.067-85.333 81.067s-85.333-38.4-85.333-85.333v264.533c0 42.667-38.4 81.067-81.067 81.067s-81.067-38.4-81.067-81.067v-529.067s-85.333 251.733-200.533 192c-42.667-21.333-59.733-72.533-38.4-110.933l153.6-307.2s93.867-183.467 256-183.467h217.6c149.333 0 268.8 123.733 268.8 273.067v221.867z" />
<glyph unicode="&#xe939;" glyph-name="heart" d="M512-21.333l-72.533 72.533c-264.533 234.667-439.467 392.533-439.467 584.533 0 157.867 123.733 281.6 281.6 281.6 85.333 0 174.933-42.667 230.4-106.667 55.467 64 145.067 106.667 230.4 106.667 157.867 0 281.6-123.733 281.6-281.6 0-192-174.933-354.133-439.467-588.8l-72.533-68.267z" />
<glyph unicode="&#xe93a;" glyph-name="heart-line" d="M742.4 874.667c132.267 0 238.933-106.667 238.933-238.933 0-170.667-162.133-324.267-426.667-558.933l-42.667-38.4-42.667 42.667c-247.467 217.6-426.667 375.467-426.667 554.667 0 132.267 106.667 238.933 238.933 238.933 72.533 0 149.333-34.133 196.267-93.867l34.133-34.133 34.133 38.4c46.933 55.467 123.733 89.6 196.267 89.6zM742.4 917.333c-85.333 0-174.933-42.667-230.4-106.667-55.467 64-145.067 106.667-230.4 106.667-157.867 0-281.6-123.733-281.6-281.6 0-192 174.933-349.867 439.467-584.533l72.533-72.533 72.533 68.267c264.533 234.667 439.467 396.8 439.467 588.8 0 157.867-123.733 281.6-281.6 281.6z" />
<glyph unicode="&#xe93b;" glyph-name="hidden" d="M503.467 593.067l149.333-128v8.533c0 68.267-64 123.733-140.8 123.733l-8.533-4.267zM512 674.133c128 0 234.667-93.867 234.667-204.8 0-25.6-4.267-51.2-17.067-76.8l136.533-119.467c64 46.933 115.2 102.4 149.333 170.667 8.533 17.067 8.533 34.133 0 51.2-85.333 166.4-277.333 281.6-503.467 281.6-64 0-128-8.533-187.733-29.867l102.4-89.6c25.6 12.8 55.467 17.067 85.333 17.067zM42.667 785.067l106.667-93.867 21.333-17.067c-68.267-46.933-128-110.933-162.133-179.2-8.533-17.067-8.533-34.133 0-51.2 85.333-166.4 277.333-281.6 503.467-281.6 72.533 0 140.8 12.8 204.8 34.133l21.333-17.067 136.533-119.467 59.733 51.2-832 725.333-59.733-51.2zM302.933 558.933l72.533-64c0-8.533-4.267-17.067-4.267-25.6 0-68.267 64-123.733 140.8-123.733 8.533 0 21.333 0 29.867 4.267l72.533-64c-29.867-12.8-68.267-21.333-102.4-21.333-128 0-234.667 93.867-234.667 204.8 0 29.867 8.533 64 25.6 89.6z" />
<glyph unicode="&#xe93c;" glyph-name="home" d="M409.6 21.333v302.933h204.8v-302.933h256v401.067h153.6l-512 452.267-512-452.267h153.6v-401.067z" />
<glyph unicode="&#xe93d;" glyph-name="image" d="M960 844.8h-896c-34.133 0-64-25.6-64-64v-665.6c0-34.133 29.867-64 64-64h896c34.133 0 64 29.867 64 64v665.6c0 38.4-29.867 64-64 64zM960 780.8v-473.6l-128 115.2c-21.333 17.067-46.933 17.067-68.267 0l-128-128-256 307.2c-21.333 21.333-55.467 21.333-72.533 0l-243.2-281.6v460.8h896zM682.667 610.133c0 51.2 38.4 89.6 89.6 89.6s89.6-38.4 89.6-89.6-38.4-89.6-89.6-89.6c-51.2 0-89.6 42.667-89.6 89.6z" />
<glyph unicode="&#xe93e;" glyph-name="info" d="M503.467 960c-281.6-4.267-507.733-234.667-503.467-520.533 4.267-281.6 234.667-507.733 520.533-503.467 281.6 4.267 507.733 234.667 503.467 520.533-4.267 281.6-234.667 507.733-520.533 503.467zM563.2 789.333c51.2 0 68.267-29.867 68.267-64 0-42.667-34.133-81.067-93.867-81.067-51.2 0-72.533 25.6-72.533 64 0 34.133 29.867 81.067 98.133 81.067zM426.667 128c-34.133 0-59.733 21.333-38.4 115.2l42.667 166.4c8.533 25.6 8.533 38.4 0 38.4-12.8 0-55.467-17.067-85.333-38.4l-17.067 29.867c85.333 72.533 187.733 115.2 230.4 115.2 34.133 0 42.667-42.667 25.6-106.667l-46.933-174.933c-8.533-29.867-4.267-42.667 4.267-42.667 12.8 0 46.933 12.8 81.067 38.4l21.333-25.6c-89.6-81.067-179.2-115.2-217.6-115.2z" />
<glyph unicode="&#xe93f;" glyph-name="instagram" d="M789.333 682.667c-21.333 0-38.4 17.067-38.4 38.4v81.067c0 21.333 17.067 38.4 38.4 38.4h76.8c21.333 0 38.4-17.067 38.4-38.4v-76.8c0-21.333-17.067-38.4-38.4-38.4h-76.8zM512 597.333c-29.867 0-55.467-8.533-76.8-21.333 8.533 4.267 12.8 4.267 21.333 4.267 42.667 0 76.8-34.133 76.8-76.8s-34.133-76.8-76.8-76.8-76.8 34.133-76.8 76.8c0 8.533 0 17.067 4.267 21.333-12.8-21.333-21.333-51.2-21.333-76.8 0-81.067 68.267-149.333 149.333-149.333s149.333 68.267 149.333 149.333-68.267 149.333-149.333 149.333zM512 682.667c132.267 0 234.667-106.667 234.667-234.667s-106.667-234.667-234.667-234.667c-132.267 0-234.667 106.667-234.667 234.667s102.4 234.667 234.667 234.667zM512 763.733c-174.933 0-315.733-140.8-315.733-315.733s140.8-315.733 315.733-315.733 315.733 140.8 315.733 315.733-140.8 315.733-315.733 315.733zM832 960h-640c-106.667 0-192-85.333-192-192v-640c0-106.667 85.333-192 192-192h640c106.667 0 192 85.333 192 192v640c0 106.667-85.333 192-192 192zM947.2 605.867h-256c38.4-42.667 59.733-98.133 59.733-157.867 0-132.267-106.667-234.667-234.667-234.667-132.267 0-234.667 106.667-234.667 234.667 0 59.733 21.333 115.2 59.733 157.867h-256v162.133c-8.533 64 42.667 115.2 106.667 115.2h640c64 0 115.2-51.2 115.2-115.2v-162.133z" />
<glyph unicode="&#xe940;" glyph-name="issue-ticket" d="M938.667 917.333c25.6 0 42.667-17.067 42.667-42.667v-853.333c0-25.6-17.067-42.667-42.667-42.667h-853.333c-25.6 0-42.667 17.067-42.667 42.667v853.333c0 25.6 17.067 42.667 42.667 42.667h853.333zM938.667 960h-853.333c-46.933 0-85.333-38.4-85.333-85.333v-853.333c0-46.933 38.4-85.333 85.333-85.333h853.333c46.933 0 85.333 38.4 85.333 85.333v853.333c0 46.933-38.4 85.333-85.333 85.333zM789.333 742.4h-597.333c-12.8 0-21.333 12.8-21.333 25.6s8.533 21.333 21.333 21.333h593.067c17.067 0 25.6-8.533 25.6-21.333s-8.533-25.6-21.333-25.6zM610.133 605.867h-426.667c-4.267 0-12.8 12.8-12.8 21.333 0 12.8 8.533 21.333 17.067 21.333h426.667c8.533 0 17.067-8.533 17.067-21.333-4.267-8.533-12.8-21.333-21.333-21.333zM422.4 469.333h-230.4c-12.8 0-21.333 8.533-21.333 21.333s8.533 21.333 21.333 21.333h230.4c12.8 0 21.333-8.533 21.333-21.333s-8.533-21.333-21.333-21.333zM648.533 558.933l110.933-110.933-281.6-281.6-110.933 110.933 281.6 281.6zM844.8 588.8l-51.2 51.2c-17.067 17.067-51.2 17.067-72.533 0l-46.933-46.933 110.933-110.933 55.467 55.467c21.333 12.8 21.333 34.133 4.267 51.2zM307.2 123.733c0-8.533 8.533-17.067 17.067-17.067l123.733 29.867-110.933 110.933-29.867-123.733z" />
<glyph unicode="&#xe941;" glyph-name="language" d="M264.533 686.933l-25.6-119.467h64l-25.6 119.467zM810.667 358.4c17.067 25.6 38.4 51.2 51.2 85.333h-102.4c17.067-34.133 34.133-59.733 51.2-85.333zM934.4 776.533h-371.2l76.8-622.933c0-25.6-4.267-51.2-21.333-68.267l-132.267-149.333h448c51.2 0 89.6 38.4 89.6 89.6v661.333c0 46.933-38.4 89.6-89.6 89.6zM934.4 448h-8.533c-17.067-55.467-42.667-98.133-72.533-132.267 21.333-21.333 46.933-38.4 68.267-55.467 12.8-8.533 17.067-29.867 4.267-42.667-8.533-12.8-29.867-17.067-42.667-4.267-25.6 21.333-51.2 38.4-72.533 59.733-25.6-21.333-46.933-38.4-72.533-59.733-12.8-8.533-29.867-8.533-42.667 4.267-8.533 12.8-8.533 29.867 4.267 42.667 21.333 17.067 46.933 34.133 68.267 55.467-29.867 34.133-51.2 76.8-68.267 132.267h-8.533c-17.067 0-29.867 12.8-29.867 29.867s12.8 29.867 29.867 29.867h89.6v29.867c0 17.067 12.8 29.867 29.867 29.867s29.867-12.8 29.867-29.867v-29.867h93.867c17.067 0 29.867-12.8 29.867-29.867s-12.8-29.867-29.867-29.867zM580.267 145.067c0 4.267-89.6 733.867-89.6 733.867-8.533 46.933-46.933 81.067-89.6 81.067h-311.467c-51.2 0-89.6-38.4-89.6-89.6v-665.6c0-51.2 38.4-89.6 89.6-89.6h473.6c8.533 12.8 17.067 17.067 17.067 29.867zM366.933 388.267c-17.067-4.267-34.133 8.533-34.133 25.6l-17.067 93.867h-85.333l-17.067-93.867c-4.267-17.067-17.067-25.6-34.133-25.6-17.067 4.267-25.6 17.067-25.6 34.133l59.733 298.667c0 12.8 12.8 25.6 25.6 25.6h64c12.8 0 25.6-8.533 29.867-25.6l59.733-298.667c0-17.067-8.533-34.133-25.6-34.133zM349.867 55.467l4.267-42.667c4.267-25.6 21.333-55.467 51.2-68.267 55.467 64 21.333 25.6 102.4 110.933h-157.867z" />
<glyph unicode="&#xe942;" glyph-name="leaf" d="M768 960s-85.333-81.067-174.933-115.2c-674.133-243.2-388.267-721.067-379.733-721.067 0 0 38.4 64 89.6 102.4 324.267 238.933 388.267 512 388.267 512s-72.533-328.533-362.667-537.6c-64-46.933-106.667-157.867-123.733-268.8 0 0 46.933 17.067 64 21.333 8.533 51.2 21.333 98.133 51.2 140.8 405.333-46.933 533.333 277.333 554.667 388.267 38.4 273.067-106.667 477.867-106.667 477.867z" />
<glyph unicode="&#xe943;" glyph-name="line-arrow-right" d="M691.2 797.867c-12.8 12.8-38.4 12.8-51.2 0s-12.8-38.4 0-51.2l260.267-260.267h-866.133c-17.067 0-34.133-17.067-34.133-38.4s17.067-38.4 34.133-38.4h861.867l-256-260.267c-12.8-12.8-12.8-38.4 0-51.2s38.4-12.8 51.2 0l324.267 324.267c12.8 12.8 12.8 38.4 0 51.2l-324.267 324.267z" />
<glyph unicode="&#xe944;" glyph-name="linked-in" d="M857.6 354.133c0 34.133-4.267 64-12.8 89.6s-21.333 46.933-34.133 64c-17.067 17.067-34.133 29.867-55.467 38.4s-42.667 12.8-68.267 12.8c-21.333 0-38.4-4.267-51.2-8.533s-25.6-12.8-38.4-17.067c-8.533-8.533-21.333-17.067-25.6-25.6-8.533-8.533-12.8-17.067-17.067-25.6v64h-149.333v-443.733h149.333v264.533c0 4.267 4.267 12.8 4.267 17.067 4.267 12.8 12.8 25.6 25.6 38.4s29.867 17.067 51.2 17.067c25.6 0 46.933-8.533 59.733-25.6s17.067-42.667 17.067-72.533v-238.933h149.333l-4.267 251.733zM247.467 605.867c25.6 0 46.933 8.533 64 21.333 12.8 17.067 21.333 34.133 21.333 55.467s-8.533 38.4-21.333 55.467c-17.067 12.8-38.4 21.333-64 21.333s-42.667-8.533-59.733-21.333c-17.067-17.067-21.333-34.133-21.333-55.467s4.267-38.4 21.333-55.467 34.133-21.333 59.733-21.333zM320 546.133h-145.067v-443.733h149.333v443.733zM998.4 960c8.533 0 12.8-4.267 17.067-8.533s8.533-8.533 8.533-17.067v-972.8c0-8.533-4.267-12.8-8.533-17.067s-12.8-8.533-17.067-8.533h-972.8c-8.533 0-12.8 4.267-17.067 8.533s-8.533 8.533-8.533 17.067v972.8c0 8.533 4.267 12.8 8.533 17.067s8.533 8.533 17.067 8.533h972.8z" />
<glyph unicode="&#xe945;" glyph-name="loading" d="M657.067 840.533c0-65.98-53.487-119.467-119.467-119.467s-119.467 53.487-119.467 119.467c0 65.98 53.487 119.467 119.467 119.467s119.467-53.487 119.467-119.467zM610.133 8.533c0-40.059-32.474-72.533-72.533-72.533s-72.533 32.474-72.533 72.533c0 40.059 32.474 72.533 72.533 72.533s72.533-32.474 72.533-72.533zM349.867 716.8c0-58.91-47.756-106.667-106.667-106.667s-106.667 47.756-106.667 106.667c0 58.91 47.756 106.667 106.667 106.667s106.667-47.756 106.667-106.667zM891.733 128c0-32.99-26.744-59.733-59.733-59.733s-59.733 26.744-59.733 59.733c0 32.99 26.744 59.733 59.733 59.733s59.733-26.744 59.733-59.733zM213.333 422.4c0-51.841-42.026-93.867-93.867-93.867s-93.867 42.026-93.867 93.867c0 51.841 42.026 93.867 93.867 93.867s93.867-42.026 93.867-93.867zM998.4 422.4c0-25.921-21.013-46.933-46.933-46.933s-46.933 21.013-46.933 46.933c0 25.921 21.013 46.933 46.933 46.933s46.933-21.013 46.933-46.933zM183.467 187.733c-34.133-34.133-34.133-85.333 0-119.467s85.333-34.133 119.467 0c34.133 34.133 34.133 85.333 0 119.467s-89.6 34.133-119.467 0zM866.133 716.8c0-18.851-15.282-34.133-34.133-34.133s-34.133 15.282-34.133 34.133c0 18.851 15.282 34.133 34.133 34.133s34.133-15.282 34.133-34.133z" />
<glyph unicode="&#xe946;" glyph-name="location" d="M887.467 601.6c0 47.066-9.271 93.671-27.281 137.154-18.014 43.483-44.412 82.993-77.692 116.273s-72.789 59.68-116.275 77.691c-43.482 18.011-90.086 27.282-137.152 27.282s-93.67-9.27-137.154-27.282c-43.483-18.011-82.993-44.411-116.273-77.691s-59.68-72.79-77.691-116.273c-18.011-43.483-27.281-90.088-27.281-137.154 0-71.014 20.992-137.062 56.576-192.768h-0.41c120.832-189.184 302.234-472.832 302.234-472.832l302.234 472.832h-0.358c36.885 57.532 56.503 124.429 56.525 192.768v0zM529.067 448c-40.738 0-79.808 16.183-108.612 44.988-28.806 28.804-44.988 67.875-44.988 108.612s16.183 79.806 44.988 108.611c28.804 28.806 67.874 44.989 108.612 44.989s79.808-16.183 108.612-44.989c28.804-28.806 44.988-67.874 44.988-108.611s-16.183-79.808-44.988-108.612c-28.804-28.804-67.874-44.988-108.612-44.988z" />
<glyph unicode="&#xe947;" glyph-name="lock" d="M874.667 576h-64v85.333c0 166.4-132.267 298.667-298.667 298.667s-298.667-132.267-298.667-298.667v-85.333h-64c-12.8 0-21.333-8.533-21.333-21.333v-533.333c0-46.933 38.4-85.333 85.333-85.333h597.333c46.933 0 85.333 38.4 85.333 85.333v533.333c0 12.8-8.533 21.333-21.333 21.333zM563.2 251.733l12.8-119.467c0-4.267 0-12.8-4.267-17.067s-12.8-8.533-17.067-8.533h-85.333c-4.267 0-12.8 4.267-17.067 8.533s-4.267 8.533-4.267 17.067l12.8 119.467c-21.333 17.067-34.133 42.667-34.133 68.267 0 46.933 38.4 85.333 85.333 85.333s85.333-38.4 85.333-85.333c0-25.6-12.8-51.2-34.133-68.267zM682.667 576h-341.333v85.333c0 93.867 76.8 170.667 170.667 170.667s170.667-76.8 170.667-170.667v-85.333z" />
<glyph unicode="&#xe948;" glyph-name="login" d="M337.067 170.667v-149.333c0-46.933 38.4-85.333 85.333-85.333h512c46.933 0 85.333 38.4 85.333 85.333v853.333c0 46.933-38.4 85.333-85.333 85.333h-512c-46.933 0-85.333-38.4-85.333-85.333v-149.333c0-12.8 8.533-21.333 21.333-21.333h42.667c12.8 0 21.333 8.533 21.333 21.333v110.933c0 21.333 17.067 38.4 42.667 38.4h430.933c21.333 0 42.667-17.067 42.667-38.4v-776.533c0-21.333-17.067-38.4-38.4-38.4h-439.467c-21.333 0-38.4 17.067-38.4 38.4v110.933c0 12.8-8.533 21.333-21.333 21.333h-42.667c-12.8 0-21.333-8.533-21.333-21.333zM759.467 465.067l-256 234.667c-4.267 4.267-8.533 4.267-21.333 4.267-8.533-4.267-12.8-12.8-12.8-21.333v-42.667c0-4.267 4.267-12.8 8.533-17.067l149.333-132.267h-601.6c-12.8 0-21.333-8.533-21.333-21.333v-42.667c0-12.8 8.533-21.333 21.333-21.333h601.6l-149.333-132.267c-4.267-4.267-8.533-8.533-8.533-17.067v-42.667c0-8.533 4.267-17.067 12.8-21.333h8.533c4.267 0 8.533 0 12.8 4.267l256 234.667c4.267 4.267 8.533 8.533 8.533 17.067s-4.267 12.8-8.533 17.067z" />
<glyph unicode="&#xe949;" glyph-name="logout" d="M661.333 192h-42.667c-12.8 0-21.333-8.533-21.333-21.333v-110.933c0-21.333-17.067-38.4-38.4-38.4h-435.2c-21.333 0-38.4 17.067-38.4 38.4v776.533c0 21.333 17.067 38.4 38.4 38.4h430.933c25.6 0 42.667-17.067 42.667-38.4v-110.933c0-12.8 8.533-21.333 21.333-21.333h42.667c12.8 0 21.333 8.533 21.333 21.333v149.333c0 46.933-38.4 85.333-85.333 85.333h-512c-46.933 0-85.333-38.4-85.333-85.333v-853.333c0-46.933 38.4-85.333 85.333-85.333h512c46.933 0 85.333 38.4 85.333 85.333v149.333c0 12.8-8.533 21.333-21.333 21.333zM1015.467 465.067l-256 234.667c-4.267 4.267-12.8 4.267-21.333 4.267-8.533-4.267-12.8-12.8-12.8-21.333v-42.667c0-4.267 4.267-12.8 8.533-17.067l149.333-132.267h-605.867c-12.8 0-21.333-8.533-21.333-21.333v-42.667c0-12.8 8.533-21.333 21.333-21.333h601.6l-149.333-132.267c-4.267-4.267-8.533-8.533-8.533-17.067v-42.667c0-8.533 4.267-17.067 12.8-21.333h8.533c4.267 0 8.533 0 12.8 4.267l256 234.667c4.267 4.267 8.533 8.533 8.533 17.067s0 12.8-4.267 17.067z" />
<glyph unicode="&#xe94a;" glyph-name="mail" d="M98.133 601.6c12.8-8.533 51.2-34.133 115.2-81.067s115.2-81.067 149.333-102.4c4.267-4.267 12.8-8.533 25.6-17.067s21.333-17.067 29.867-21.333c8.533-4.267 17.067-12.8 29.867-17.067 12.8-8.533 21.333-12.8 34.133-17.067 8.533-4.267 21.333-4.267 29.867-4.267s17.067 0 29.867 4.267c8.533 4.267 21.333 8.533 34.133 17.067s21.333 12.8 29.867 17.067c8.533 4.267 17.067 12.8 29.867 21.333s21.333 12.8 25.6 17.067c34.133 25.6 123.733 85.333 268.8 187.733 29.867 21.333 51.2 42.667 68.267 68.267s29.867 55.467 29.867 85.333c0 25.6-8.533 46.933-25.6 64s-38.4 25.6-64 25.6h-849.067c-29.867 0-51.2-8.533-68.267-29.867-12.8-17.067-21.333-42.667-21.333-72.533 0-25.6 8.533-51.2 29.867-76.8 21.333-29.867 46.933-51.2 68.267-68.267zM968.533 541.867c-123.733-85.333-221.867-149.333-285.867-196.267-21.333-17.067-38.4-29.867-51.2-38.4s-29.867-17.067-55.467-25.6c-21.333-8.533-42.667-12.8-64-12.8s-38.4 4.267-64 12.8c-21.333 8.533-38.4 17.067-55.467 25.6-12.8 8.533-29.867 21.333-51.2 38.4-51.2 34.133-145.067 102.4-281.6 196.267-25.6 12.8-42.667 29.867-59.733 46.933v-452.267c0-25.6 8.533-46.933 25.6-64s38.4-25.6 64-25.6h840.533c25.6 0 46.933 8.533 64 25.6s25.6 38.4 25.6 64v452.267c-12.8-17.067-29.867-34.133-51.2-46.933z" />
<glyph unicode="&#xe94b;" glyph-name="menu" d="M59.733 755.2h904.533c34.133 0 59.733 25.6 59.733 59.733s-25.6 59.733-59.733 59.733h-904.533c-34.133 0-59.733-25.6-59.733-59.733s25.6-59.733 59.733-59.733zM964.267 507.733h-904.533c-34.133 0-59.733-25.6-59.733-59.733s25.6-59.733 59.733-59.733h904.533c34.133 0 59.733 25.6 59.733 59.733s-25.6 59.733-59.733 59.733zM964.267 140.8h-904.533c-34.133 0-59.733-25.6-59.733-59.733s25.6-59.733 59.733-59.733h904.533c34.133 0 59.733 25.6 59.733 59.733s-25.6 59.733-59.733 59.733z" />
</font>
</defs>
</svg>
